<svg xmlns="http://www.w3.org/2000/svg" viewBox="0 0 933.9 1344">
    <defs>
        <style>
            .cls-1{fill:#7c7c7c;stroke:#fff;stroke-linecap:round;stroke-linejoin:round;stroke-width:2px;}
        </style>
    </defs>
    <title>NewZealand</title>
    <g id="Layer_2" >
        <g id="Layer_1-2" >
            <path id="NZL3334" class="cls-1"
                d="M749.6,481.4l.4,4.7,2.3,3.6,5.2,1.5.8,2,.4,1.9.4.6-.1.9-1.6,1.3-.3,1.5-.6,1.5.4,1.2,1.7.8,2.1,1.8-.9,2.5-.4,3.1.4,5.6-1.7,1.2-2.5.7-2.4,1.2-3.5,4.7-1.6,1-1.1,1.1.9.6.9.3.5,1.2-.5,1.6.8,2.5,1.2,2.2-.3.6-.7.2-.3,1.2-.1,1.3-3.6,12.9-.8,6.7-1.7,7.7-.1.7.3,1.2,1.4,1.8,1.6.5,5-.2,4.6,4,1.1.7,1.3.2.6.2.6.4.4,1.2-.2,1.4.3,1.5.9,1.1,2.6,2.6.2,1.9-.5,1.7v2.7l2.2,5.4.2,3.1-.4,3.5-.2,3,2.3,2.6,2.7,1.9,8.2.7,2.3,1.2,3.1,2.9-.1.8-1.4,2.3-1.8.1-2-.4-1.5.4-4.4,7.4-4.6,4.6-.7,1.3-.1,1-.3,1.2-.4,1.1-1.6,2.9-.5.4-1.3.2-.5.4-.5.9-3,7.6-1.8,2.9-2.6-1.4-2.4-3.3-7-1.7-10.4-.4-15,2.1L708,644.9l-12.2,1.4-2.1-.8-4-1.3-.3-.2-5.8,1.6-10-.2-8,1.7-2.4-.1,2.3-3.8,3.6-8.1,2.1-7,.8-1.7.7-2.1.3-5.7.4-2.3v-.5l-.1-.7.1-.6.2-.2h.6l.7-.2.5-.3-.5-1.6-.2-1.5-.1-1.5.1-.9.7-1.7.9-5.8.3-4-.1-1.1-.4-.9-1.3-2.3-1-6.6-1.4-5.5-1-2.6-1.2-2.3-5.9-6.1-1.5-2.8-7.1-8.1-5.4-3.4-4.2-2-2-.4h-3.4l2.1-3.8,1.6-1.7,1.9-1.2,1.9-2.3,2.3-1.8,1.7-.6,1.3-1.6-.2-1.4v-2l.3-.7.8-.4,1.8-.5,1.4-1.3-.5-1-.7-.8.1-4.6,1.2-4.5-.7-3-1.1-3.1-3.6-3.1-2.2-2.9-.7-2.1-.1-2.2.5-.9.3-1-.4-1.5-1.5-.8-3.5-2.5.2-1.4.8-1.4,1.2-3.3,2.2-2.4,1.8-.3,1.3-.6,1.6-3.5,6.5-8.5.9-.3,1.3.4.9-.6-.8-1.7-1.5-1.4-5.1-1.2v-3.1l-1.2-2.5-3.1-.7L650,465l-.8-2.8.2-3.3-1.2-2.3-2.7,1.2-2-3.3-.8-3.8,1.7-3.5.3-.4.4-.4,1.7-.6,1.3-.8,2.7-1.7,2.9-1-.1-.8.2-.9,1.9-3.2-.3-1.8.6-1.3,4.8-.9,1.8-.9,1.6-1.3.9-.2.8.4.7-.5.8-.6,3.2.2,3,.6,1.9-.3,3.1-1.7,1.3-1.1,1-.6.8-.3.1-1.1.4-1.1,1.6-1.1,1.3,1.2h1.8l4.6-1.1h4.8l2.6,1.8,3.2,1.5,2.3-.8,2.2-1.4,1,1.1-1.2,2.8-2.2,2.5-1,3.3-1.7,4.1-2.7,4.3,1.4,2.7,2.2,1.9v2.8l-1.4,2.8.4,2.4,1.5,1.8.2,1.6-.7,1.2-.6,3.6,2.7,1.6,2.5-.4,2.5.2v2.1l-1.3,2.8-1.3,1.9-.5,2.3,1,1.6.7,2-1,4.6-1.6,4.2-1.8,3.6.3,3.9,6.7,2,7-.1,3.2.4,3-1.5.9-1.2.4-1.6.6-1.5.8-1.3.5-1.3.9-1.2,3.1-1.1,2.1-2.5.2-.6.4-.3,3.4-.4,5.8.2,4.5-1.6,2.1.7Z" />
            <path id="NZL3396" class="cls-1"
                d="M882.6,463.2l-2.5-3.9-3.5-.6-8.3-7.3-12.8-14.6-.2-7.5-6.8-4.6-1.5,5.2L830.6,420l1.3-2.6-.7-3.4-.1-3.2,5.2-3.7,9.3-3.9,2.9-2.7,1.6-3.1.3-3.5-.5-1.8.7-1.5,1.9-.8,2.1-.3,2.1-1,1.9-1.5,1.7-1.8,1.2-.5,1.1-.7.4-1.2.4-1.2,1.6-1.8.3-2.2.1-3.8-.9-2.3.9-.8,2.6.8,2.9,3,3.1,2.6,3.3,2,3.1-4.2,4.4-15.4,4-7.6,2.9-2.9,2.1-3.7-.7-2-1.8-.1-2,1.6-1.7-1.4.3-2.3.6-1.9.1-3.2-.8-2.8-.4-.9.2-1.1,1.7-.8,4.4-1.4,1.5-2.5.1-1.6,15.4.8,1.8.5.9.8-1,1.1v.6l.9.5,1.5,1.5.8.7,1.3.5,1.3.2h2.7l.9.3,1.5,1.3,1,.3h2.4l1,.2,1.1.5,1.2,1,1.7,1.8,1.2,1.9-.1,1.7-.7.9-1.4,2.4-2.9,3.1-1.6,4.5-1.1,2.4-2.7,2-1.2,2.1-2.1,6.1-.9,1.6-1.2,1.6-.6,1-.3,1.1.6,2.3,1.1,2,.9,2.1-.5,2.6-1.2,1.3-1.6,1.2-.7,1.5,1.9,4.1-.2,2-1,1.9-1.1,1.7-.5,2,1.1,2,1.5,1.7.8,1.3-.3,1.1-.6,1L915,403l-.3,1.3-.2,2.2-.5,1.2.9.4.8.7.5,1-.1,1.4-.5.8-2.9,1.6-.3.8v6.4l-.4.8-8.7,9.7-7.9,7-1.3.7-3-2.8-2-.5-1.9.5-1.7,1.2-.6.4-.5-.2h-.3l-.1,1.2v.5l.3,1.1.1.4,1.5,1.5.6,1.1-.2,1.2L885,447l-.5,2.2-.1,5.2-.8,5.8-1,3Z" />
            <path id="NZL3397" class="cls-1"
                d="M882.6,463.2l-.2,3.9-.6,1.6.7,2-.6,1.4-1.1,1.5-.5,1.9,5.3.6,2.5,1.3,1.1,2.5-4.2,4.4-1.8,5-.7,3.2-.9,1.1-1.3,1-1.1,1.3-2.1-6.1-.6-3.2.1-2.9.3-1.7.6-1.6.7-1.4.7-1.1.1-1.2-1.1-.8-1.4.1-1.1,1.6-.8-.4-2.3-1.7-1.2-.4-12.1-.6-12.5-.3-1-.4-.7-.7-.7-.2-2,1.8-14.3,7.1-10.5,5.1-.9,1.2-.4,2.2-.8,2.1-1,2-1.9,2.5-2.8,3.1-1.8,1.4-.2.3-.9,2.8-1,1.2-.5,1.2-.2,1.3-.1,1.7.3,1.7.6.9.9.7.9,1.1.5,2,.5,9.3.2,1.9.6,1.7h.4l.5.6,1.3.7,2,1.5.5.5,1,.7h1.4l2.6-.3,2.4.6-.2,1.4-1.4,2-.8,2.4-.4.8-.8.8-1,.6-1.7.7-.6,1.1-1.8,6.7v.3l.1.5.1.6-.2.7-.3.2-1.2.5-.4.3-1,1.9-2.6,8.9-1.6,4.1-1.1,1.7-.3.9-.1,1.3.2,2.6-.1.6-.1.5-1,1.5-.2.5-1.3,3.5-1.9,3.7-3.1,4.5-3.3,3.2-.7.3-.7-.4-.6-.8-.7-.4-.9.6-1.9,2.8-.7,1.6-.3,2.1.5-.9.6-.7.7-.4.9-.2-5,10.2-.7,6.4-3.1-2.9-2.3-1.2-8.2-.7-2.7-1.9-2.3-2.6.2-3,.4-3.5-.2-3.1-2.2-5.4v-2.7l.5-1.7-.2-1.9-2.6-2.6-.9-1.1-.3-1.5.2-1.4-.4-1.2-.6-.4-.6-.2-1.3-.2-1.1-.7-4.6-4-5,.2-1.6-.5-1.4-1.8-.3-1.2.1-.7,1.7-7.7.8-6.7,3.6-12.9.1-1.3.3-1.2.7-.2.3-.6-1.2-2.2-.8-2.5.5-1.6-.5-1.2-.9-.3-.9-.6,1.1-1.1,1.6-1,3.5-4.7,2.4-1.2,2.5-.7,1.7-1.2-.4-5.6.4-3.1.9-2.5-2.1-1.8-1.7-.8-.4-1.2.6-1.5.3-1.5,1.6-1.3.1-.9-.4-.6-.4-1.9-.8-2-5.2-1.5-2.3-3.6-.4-4.7,3.8-4.8,5.2,5,6,2,1.2-1.5-.9-2,1.9-1.4,2.2-.6-.2-2.7-.6-3.3,3.8-4.9,5.7.1,3.8-.5,1.1-.5-.6-1.7-.2-2.6,1.1-2.3,3.8-4.1,2.9-4-.3-3.2.5-1,.5-.9-.2-5,1.6-2.4,2.3-1.6,1.9-1,6.6-1.8,4.4,2.6,2.2.5H811l1.3-1.3,1-1.4.6-1.4.6-1.5,1.3-1.5,1.5-1.2,1-.3.5.3,1.5-.7,1.1-1.8,3.6-1.4.6-1.1.7-.9,1-2.3,1.9-.6,1.4-.7,16.4,9.9,1.5-5.2,6.8,4.6.2,7.5,12.8,14.6,8.3,7.3,3.5.6,2.5,3.9Z" />
            <path id="NZL3398" class="cls-1"
                d="M672.3,249.9l-.1.9.6,2,.1.9-.2.7-.4.3-1-.2-.6.1-1.6.5-1.6.2-1.6-.2-3.1-1.2.5-.7-1.7-1.7-.7-.1-1,.8-.8.3-.3-1.1.2-1.7.6-1.1h4.5l.9.5.6.9.8.5,1.4-.9,3.4-3,1.7-1,.4.3.8,1,.7,1.4-.6.5-1.1.3-.8.8ZM651,218.6l-1.2.4-2.7-.1-.8-.4,1.2-.8v-1.1l-.8-2.4.2-1.1,1.1-.7,1.2.5,1,1.1.4,1.3.5,2.3-.1,1Zm17.3-21.3-1.3.2-1-.1-1.5-2.1,1.1-1.8,1.9-1.1,1.1.1.3.6.7.8.6.9V196l-.7.9-1.2.4Zm15,75.1-4.2,2.3-2.5-1.6-1.6,3.7-1.7,5.2-.4,6.8-7.1,1-8.7,2.1-8.3,2.1-6.7,2.1-4.6,3.1-4.5.7-1.6-4-.8-3-1.8-3.5-.3-.9-.5-2-3.2-6.2-.6-2.7,1.3-.1,2.1.5,3.1-1,1.1.4.8.8-.2,1-.7,1.1-.1.6,3.9,7.6.3,3.1,1.1,2.5,1.3,1,.8-2.2-.9-2.5-.2-1.5.9-.7,2.3.4,1-.1,1.1-.9h-1.5l-3.9-.7-1.4-.6,1.2-.6,4.1-3.7.6.2-.1,2.1,3.2-3.8,1.7-1.4,1.9-.2,3,3.4,1,.6,1.1-.5.2-1.1-.4-1.3-.7-1.1.2-1.1-3.9-1.5L648,275l-1.2.4-.7-1.2-.6-1.9-.7-1.4-1.9,2.4-1.2-1-.1-2.1.9-1.2.9-.3.9-.7.7-.9.4-1.1-5-.9-5.2.3-2.6.7-2,1.6-.7,1.2-.5,2.3-.3,1.1-.8,1h-.6l-1.8-1.7-1.1,1.7-1.7,1.5-1.8.6-1.5-.8-.9-1.7-3.1-11-1.7-9-1.5-4.3-4-7.4L598,227.8l-2.3-4.4-.4-4.4.2-1.1.3-.9.6-.5,1-.2-.9,2.7-.1,1.3.4,1.3,1.3-2.5.7-1,1.1-.4,1.1.7,1.2,3.1,1.5,1.5,1.8,3.1,1.1.8,1.3.3.7.9-.1,1.1-1.1.9,3.1,1.2.8.1.1.3-.8.5-1.1.4-1.1.2.7.5.3.8-.1.9-.4,1,1,.1.7.3,1.5,1v-.7l.1-1.3-.1-.7.8,1.4.8,2.2.7,1,.8-1.9.9.1.3-1.1.1-1.6.4-1.4.5-.6,1.2-1.1.4-.9-1.2.4-.4.2-.7-1.8.8-4.3-.6-1.1-.7,1.4-.3-.7v-5l-.1-.3.3-.5,1.3-1.4-.6-1.1-.9-1-.7-1.1.3-1.1,1.7-1.5-.1-.6-2.4-1.5h-.5l-1.3,1.7-1,.9-.6.4-4.6.4-2.4-.6-1.7-1.6-.5-3.1,1,.6.6-2.3.9-.2,1,.7,1.2.5,3.3-.2,1.6-.5,1.2-.9,1.2-1.3,1-.6,2.3-1.1,2.1-1.9.8-.4h.6l.5-.3.2-1.3-.4-.4-.2-.1-.1-.2-.3-.6,2.3-1.7,7.5-6.4,1.4-.9.9,1.1,4.4,6.7,2.4,2.8,3.2,2.3,2,.8.1.5-.5,1.3v.3l.3.1.2.2-.2.4-.3.2-.3-.1-.1-.3-.1-.1-.4.3-.3-.2-.2.1-.2,1.1.6,1.7,1.7.7,2.2.3,1.8.6-2.3.4-6.3-.3-1.4.2.2,1.3,1.1,4,1.3,2.5.1,1.7-.2,1.7-.3,1.5-1.6-4.5-1.2-1.9-2-.8,1.4,4.2-.2,1.6-1.7.1v.7l.7.3.7.4.6.5.6.7-.5,1-1.7,1-.4.7v1.3l.8,1.7.2,1.3v1.9l.4.3,1,1,.7.6,1.1.3,2.1.1,3.3-1.3h.9l.8.7-.3.5-3.6,2.1-1.9.7-1.2-.1-3.3-1.3,1.6,1.7,1.2,2.4,4.6,14.4-1.7-.5-1-.9-1.1-.3-2,1.1-.6-.5-.3-.6v-.7l.4-.9-1.5-.3-1.1-2.6h-1.1l-2.7,1.4-1.3.8-1.2,1.4v.7h.6l2.7-.4,1.4.4-.7.7-1.1.7-.8.8.4.7,1.3.8.3.3v.6l.1,4.1.3,1.3,1,.5.6-.5.1-1.1-.1-1.4.2-1,.5.8.6-1.1.7-1,.9-.7.9-.5,1.2-.2,3.6.8h4.9l1.6,1.1-.2,2.9-.8,1.1-.7.7-.4.8.3,1.9.4,1.2.5.7.5-.2.7-1,2.1-10.6h.5l1.7,4.6.6,2.2-.1,2.5,1.7-.5h2l1-.8-1.3-2.3-.3-1.6,1.8-.5,2.5.3,1.6.7.9,2.2-.9,4.4,1,1.7,1.2.3,1-.4.8-.6,1.3-.4,1.8-1.3.5.2.4.4.4.1,2.5-1.2.7-.1.8.3,1.7,1.4.9.3.7.4,2.7,3.4.5.9Zm9.1-84.7.2,1.1,1.1,1.1,2,1.3,2,.8.7.1.7.4-.4.8-.7,1-.4.8-.3,1.4-.4,1.1v1.1l1,1.6.3.4.4.3.4.2.5.1.2.1v.4l-.1.5.1.3,1.5,2.1.6.5-1.5,3.3-.7.7-1.1.1-.6-.7-.3-1.2v-1.2l-.4-1-1,.3-1.2.7h-.8l-.4-1-.2-2.4-.3-.8-.6-.5h-.6l-1.9.5.3-.9v-.6l-.3-.5-.5-.7-1.8.6-2.2-1-1.8-1.9-.5-2.3,2,2.5.6.2.7-.8v-1.2l-.2-1.3.3-1,.6-1.6-1-.9-1.6-.8-.9-1.6,2.3.1,1-.4.9-1-1.5-1.6-.3-1.9.9-1.4,2-.3.7.3.7.5.5.9.2,1.2.3.6,2.3,1.7-1.5.8Z" />
            <path id="NZL3399" class="cls-1"
                d="M895.3,324.9l-.1,1.6-1.5,2.5-4.4,1.4-1.7.8-.2,1.1.4.9.8,2.8-.1,3.2-.6,1.9-.3,2.3,1.7,1.4,2-1.6,1.8.1.7,2-2.1,3.7-2.9,2.9-4,7.6-4.4,15.4-3.1,4.2-3.3-2-3.1-2.6-2.9-3-2.6-.8-.9.8.9,2.3-.1,3.8-.3,2.2-1.6,1.8-.4,1.2-.4,1.2-1.1.7-1.2.5-1.7,1.8-1.9,1.5-2.1,1-2.1.3-1.9.8-.7,1.5.5,1.8-.3,3.5-1.6,3.1-2.9,2.7-9.3,3.9-5.2,3.7.1,3.2.7,3.4-1.3,2.6-1.4.7-1.9.6-1,2.3-.7.9-.6,1.1-3.6,1.4-1.1,1.8-1.5.7-.5-.3-1,.3-1.5,1.2-1.3,1.5-.6,1.5-.6,1.4-1,1.4-1.3,1.3h-1.9l-2.2-.5-4.4-2.6-6.6,1.8-1.9,1-2.3,1.6-1.6,2.4.2,5-.5.9-.5,1,.3,3.2-2.9,4-3.8,4.1-1.1,2.3.2,2.6.6,1.7-1.1.5-3.8.5-5.7-.1-3.8,4.9.6,3.3.2,2.7-2.2.6-1.9,1.4.9,2-1.2,1.5-6-2-5.2-5,3.6-6.1-1.5-9-1.3-1.3-1.8,1-2.4-.5-2-1.9-2.2-3.7-1.9-4-.9-1.4.5-3.2.7-2.3,1.6.1,5.1,2,1.7-.6,1.4-1.5-1.7-3.7-3.1-3.6.9-3.9,1.8-4.3-1.2-1.4-6.4-2.6-4.4-1.2-.8-2.1.7-2.2,1.1-.2,1.1-.3.7-1.5.9-1.2,2-2.1,1.4,1.4,1.6.9,1.6,2,.4.4h2.6l1.3-.2,1.2-.5.7-.5,1.2-1.1.7-.4h1.1l1,.4.8.8.3,1.2-.1,1.2-.5.8-1.2,1.3-.5,1.2-.2,1,1.1.8,1.9.1,1.7-.8.9-2.2.5-2,1.4-1,4.6,2.2,1.5-2.7,1.8-7.8-.8-3.8-2-1.9-11.7-5.3-.9-1.2-.8-1.6-1.3-2.2-1-2.7-.7-4.1-1-4.1.1-2.2-1.2-1.5-3.4-3.3-5.5-.9-2.3-1.4-1.8-1.7-.8-2.7-2.6-1.2-1.3-.1-1.2-.3-.9-1.6-1.2-4.1.6-2.3.1-2.1-2.1-2.7-.6-1.2-1-7.9-2.7-6.7-1.9-3.1L723,333l-.1-2.8-1.3-2.7.2-2.3.6-1.5-.8-1.8-1-1.2.6-1.5.9-1.4,2.3,1.3,2.5.7.2-1.2-1.8-1.6.3-1.7,1.4-.6,1.6-2.6.4-3.7,3.1-1.2.2.8,1.4,3,.3,1.5.2.7,1.1.8.3.8v1.3l-.4-.2-.6-.6-.6.2-.6,1.5.7.6,3.1.5,1.3.6,1.4.9,1.2,1,1.1,1.1.8,1.3,1.2,2.9.6,1.2,2.2,2.1,1,1.2.3,1.7-2.8-2.2-.9-.5-1.2-.1-1.1.2-1.2-.2-1.3-1.2.8-.5,2.4-.9-2.7-1.8-1.3-1.3-1-1.2-1.5-.9-2-.2-3.6.7.4.6.7,1.1.4.4-.3.5-.2.7-.1.8.1.6.5.8.5.1.4-.2h.2l.4.3.8.2.3.2.2.5-.2.6-.3.5-.1.4.3,2.1.1.5.4.5.4.2h1.4l.6-.2.4-.5.3-.4.3-.2,1.3.6.7,1.2.4,1.4.8,1.5,1.2-.9.7.6.7,1,.8.6,1.1-.5.4-1,.5-.8,1.5.2,1,.7.4.9.1,1.2v1.6l.4.9h.9l1.3-.4,1.1-.2-1-4.7-1.8-2.9-.4-1.3,1.1-.4,1.5,1.3,2.7,5,1.9,1.1,2.1.5,4.6,2.3,2.2.5.9.4,1.9,1.8.9.4H773l.4.4.3.7.6.3.9-.7,15.4,11.3,3.1,1.5,4.9.8,4.6,1.8,5.2.8,4.3,2.7,7.1.9,2.9,1.7h-4.5l-.8.2.4.6,3.6,2.6,1,.4,1.1.2,1-.5.2-1.2-.4-1.3-.5-1,1.3-.4.7.5.7.7,1,.5h5l.2.2.8,1.5.5.3.3-.2.4-.3.4-.2.3-.3v-1.4l.5-.3.9-.1,2.3-.5,6.9-.5,1.8-1.2,1.4-1.3,6-3.7,2.3-2,.8-1.1.3-.9v-2.4l1.3-2.4.3-1,.4-.6,3.2-1.7,1.2-1.7.9-3.6.9-1.7,1.1-1.4.5-.8.2-1.2.6-.7,7.7-2.2,1.5-.1,1.4-.4,1-1.1,1.8-2.8,1.2-.7,3.5-.3,1.4-.7,1-1.1.3-.9-.4-1.1-.9-1.5,3,.6,3.6.2Z" />
            <path id="NZL3400" class="cls-1"
                d="M587.5,767.9l-6,6.4-2.2,3.7-1.1,2.4-.4,2.1.1,3.2-.2,1.8-.7,1-.5,1-.6,1.4-.1.5-1.5,1.9-1.5,2.8-1.5,1.5-3.5,2.2-1.6,1.6-2.4,3.9-.4.4-.6.1-1.1-.1-.7,1.9-.4.6-.8.8-.8.6-.6.8-.1,1.7.3,1,1.3,1.6.5,1-.5.8-.6.7-1.6-2.1-.8-.6-1.2-.2-1,.3-1.7,1.5-.8.3-.9.8-4.1,5-1.5,4-1.2,4.6-1.8,3.8-3.4,1.8v.8h.5l.4.2.3.3.4.2-6,13-.8,3.6-1.2,2.3-1.5,1.9-2.4,1.2-.1,1.1.3,2v1.2l.1.6v.6l-.6,1.3-.7.9-.7.4-.5.5-.2,1.5-.3.7-.7.7-3.4,2.1-.8.3-2.2.4-3.2,1.6-.4,1.1-.3,1.2-.3.9-.7.7-3.7,2.9-10.4,2.6-2.6,1.2-2,2.6-5.9,4.4-1.2,2.1-1.7,4.4-1.8,2.8-.4.9.2,1.5.6,1.3-.6,2.6-.3,2.7-.1,5.6-.5.6-.5,1.5.2,2.3,1.4,6.6,2.2,6.3-.2,1.7-1-1.2-.9-.2-.3.7.6,1.5,1.2.8,4.7,1.3-2.2,1-5.1.4-2.3.8-2,1.9.9.8,2.1.3,1.7.6,1.6-2.1,2.9-.7h2.7l1.3.2.3,1.6.7,1.5.7.9.4-.4.3-2.7.7-2.7,2.1,1.3.4.9.1,1.8-.2,2.9.3.7,1-.3.7-.8.6-1.3.6-1.1,1-.5,1.2.1,1.1.5.9.9.3,1.5,2.2-2.5.9-.5.3,1.9.9,1,1.1.9.9,1.3v.8l-.2.9-.3.7-.1.5.2.7.7,1.1.2.5.3,2.9-.3,3.1-.6,3-.9,2.7-1-1.5-1.9,2.5-1.4-.3-.5,2.3v.7l-.7-.9-.6-.2-.7.4-.7.7-.3-1.4-1-2.4-.3-1.4v-1.6l.3-.9-.2-.9-.8-1.3-.5-1.4.2-1.6-.1-1.3-1-.5-1.2.4-.5,1.1.3,1.2.9,1-1.1,2.9v2.9l.8,2.8,2.4,3.9-.3.2-1.8-.3h-5l-1.1-.6-1.7-2.2-1.8.6-.9-.8-1.6-2.1-3-3.2-.1-1.4,1.5-2-1.4.1-2.1,1-6.3,1-2.1,1.1-4.5.4-6.8,2.5-3.1.5-.6-.4.3-1.1.7-.8,1-.5,2-.3,11.6-4.1,1.2-.1,1.2-.4-.6-.8-2.2-1.4-.9-.2-2.5.3-1.3-.5-.5-.6-1-1.5-.6-.7-2-1.1-2,.4-2,.8-2.2.5-1.3,1.1-.7,2.7-.3,3.1-.1,2.6.2,1.6.2.6-.2.6-.9,1.3-.9.4-6.4,1-.9-.2-1.6.6-1.4,1.6-3.5,1.2-1.6,1.4-8,3.8L417,988l-2.3.4-1.2-.2-1.2.1-1,.6-5.7,4.1-2.9.6-1.2.5-.9.9-.8,1-.9.7-2.2.7-2,1.5-.8.4-1.3.4-1.4,1.7-.8.8-.5.9-2,.8-.9.7-4.8,5.1-1.8,1.1-1.6-.6-1.1.8-.9.7-.6,1.2-.3,1-4.2,7.8-.3,1.2v6.2l-.4,2-1,1.6-2.3,2.7-.1.9-.1,1.3-.2,1-.9.5-.6.2-2.3,1.3,1.7,2.2.4,3.7v8.1l.9,5.2.1,1.9-.4,2-.9.9-1,.6-.8,1.3,2.2.4.8,2.6-.1,3.5-.6,6.5-.8,2.2-.9,1.5-.7,1.5-3.6-.7-8.1-3.3-13.7-3.8-6.5,1.8h-3l-3.1.8-2.7,1.4-12,11.1-7.5,4.4-1.6-1.6-1.7-2.8-.8-2.8-.4-3,.2-2.4-.9-2.1-1.5-1-2.9-.2-6.8,1.5-5.5-.4-2.4-1.3-1.6-2.1-2.3-3.7-2.7-6.5-2.5-7.8-1.8-3.9-2.3-3-2.5-1.1-5.7.7-4.3-4.6-2.1-2.9-2.2.3-1.7-1-1.5-2.1-1.2-7.1-1.2-2.8-2.2-2-2.4-1-.5-1.6-.2-2.7v-19.5l.2-2.3,1.6-2.5,1-2.1,1.8-3,1.7-2.1,1.3-2.9,2-3.3.9-2.6-.6-6,4.1-4.9,2.7-2.6,2.6-3.1,12-10,2.1-3.8,1.7-1.8,1.5-2.9,2-2.4,2-2.9,1.1-2.7,1.2-2.3,2-2.4,6-5.4,2.4-1.5,7.7-2.7,10.4-6,3.7-1.5,2.6-.4,1.3.5h2l7.5-8.4L340,901.1l7.7-4,2.9-1.9,4.8-8.4,3-1.9,1.6.2,6.1-2,1.5-.9.9-1.1.3-1.2.5-1.6,1-1.9,3.3-3.3,1.8-1.3,3.1-1.3,2.6-.2,1.4-.3,1.2-.7,1.6-1.2,2.8-1.1,1-.1.8.2.5.4h.4l.6-.1,2.9-.8,3.2-.3,2.8-.6,3.9.1,1.1-.7.9-1,.4-1.3.3-1.4.9-2.8.6-2.8.3-1.1.4-.5,4-1.2,4.7-2.9.3-2,.4-1.2,1.8-2.2,1.8-2.7,1.5-1.3,2.3-1.7,1.1-.3,2.3-.2,1.4-.5,2-1,2.2-2,2.1-4.2,3.4-2.8.9-1.1.8-1.5,1.6-1.6.7-1,.8-1.6,1.1-1.3,4.8-3.7,3.9-3.5,2.2-1,1.5-.3,1.9-.9,1-1.1.4-1.2.3-1.1,1-2.1.5-1.2.3-1,.4-2,2.2-.6,1.4-.9,1.4-1.2,3.6-4.3,1-2.2,2.1-5.9.2-1.5.3-1.1.6-.5.8-.2h.9l.9.2.5.3,1.2.2.8.5,1.3,3.3,1.4.8,1.4.3h1.2l1.5,1.5,1,.3.4,1.4.3,1.7.8,2.5.9,1.3.2,1.5-.3,1.3-.2,1.5.6,1.1,1.3.6,1.4.5,1.4.7.9,2.2,1,1.4.6,1.3.5.8,3,2.5-.1,1.5-.4,1.6v1.2l.8.8,1.3.4,1.1.5,2,2h1.5l1-1.1,2.9-1.8,1.5-.3,1.3-1,1.4-2.1,1.9-2.1,1.5-3.2.1-1.3-2.1-1.5,1-1.5,1.9-1.9,2.5-2.1,4.1-4.1,2.6-1.4,7.1-2.9,1.1-1.2.5-1.6.8-1.6.2-3,2.1-5.9,4.9-4.3,2-1.2,1.5-1.3,1.5-.4,1.8-1.2,1.3-1.1,1.6-1.1,1.2-1.1,1.3-3.3,1-1.1,1.4.5,1.1,1.2.8,1.3.7.6.9-.6,1-.9,1.5-.7,6.5-1.4,1.3-.1,1.3.2,1,.6,1,.5,2.2.5,1.5-.1,1.1.1.8.4.4.6,2.3,2.8Z" />
            <path id="NZL3401" class="cls-1"
                d="M612.1,682.6l-.6,1.3-.4,3.1-.6,1.1-1.1.8-1.4.1-1.4-.2-1.4.1-1,.6-1.9,1.7-.8.5-1.2.2-3.9-.2.4-.4.8-.8.3-.2.8-.1,1.9.2.7-.4,3.9-4.6,1.4,1.4,1.7-.7,1.2-1.7v-1.8l-1,.5-.9-.1-.8-.7-.5-1.1,1.4-.1,1-.8.9-.8.9-.4,1.3.2.2.7-.1,1.2.2,1.4Zm-24.6,85.3-2.3-2.8-.4-.6-.8-.4-1.1-.1-1.5.1-2.2-.5-1-.5-1-.6-1.3-.2-1.3.1-6.5,1.4-1.5.7-1,.9-.9.6-.7-.6-.8-1.3-1.1-1.2-1.4-.5-1,1.1-1.3,3.3-1.2,1.1-1.6,1.1-1.3,1.1-1.8,1.2-1.5.4-1.5,1.3-2,1.2-4.9,4.3-2.1,5.9-.2,3-.8,1.6-.5,1.6-1.1,1.2-7.1,2.9-2.6,1.4-4.1,4.1-2.5,2.1-1.9,1.9-1,1.5,2.1,1.5-.1,1.3-1.5,3.2-1.9,2.1-1.4,2.1-1.3,1-1.5.3-2.9,1.8-1,1.1h-1.5l-2-2-1.1-.5-1.3-.4-.8-.8v-1.2l.4-1.6.1-1.5-3-2.5-.5-.8-.6-1.3-1-1.4-.9-2.2-1.4-.7-1.4-.5-1.3-.6-.6-1.1.2-1.5.3-1.3-.2-1.5-.9-1.3-.8-2.5-.3-1.7-.4-1.4-1-.3-1.5-1.5h-1.2l-1.4-.3-1.4-.8-1.3-3.3-.8-.5,2.6-9,7.8-9.9.7-2,.9-5.5.8-3.1,2.7-4,1.3-1.6.3-1.4.7-1.6,4.6-4,3.2-4,2.2-3.7,6.1-7.1,2-3.3,3.5-1,1.9-.2,1.5-.8.7-1.6-.3-2.3.1-2.7.4-2.2.1-1.5.8-2.6,1.9-.7,2.6-1.8,3.5-3.6,6.7-10.4,3.2-3.1,2.4-3.1,1.2-2,1.3-3.5.7-3.3v-2.6l1-.5,1.3.6,1.2,1.3.8,1.8.1,2h.5l.4-1,.4-.3.4.3.3,1,1.1-.7-1-2.4,1.1-1.2,2-.7,1.9-1,.6-1.1-.1-1-.6-.8-1-.3-2.9,2.1-.5-.3v-1.3l.1-.6,1.2-1.6.7-.6,1.7-.9.8-.6.8-.4,3.9-.6.4-.5,1.7-2.7,1.9-1.3-.3,4.7,1.9.5.3-.4,2.3-2.4.2-.5.2-1.3.1-.4.4-.2,1.2-.4,3.8-2.1.6-.1h.9l.9.2.7.5.8,2.7-1.3.4-3.7-1,.5,1.4-.5.7-.7.7-.4,1.5-.9-.4h-.8l-.8.3-.7.8.5.6.1.4.3.2.7.2-1.3,1.2-2.5.8-2.4.1-1.1-1.1-1.2-.2-2.2.3-1.2,1.1,1.9,2-1.1.7-.8.9.1.7,1.3.5-.3,1.3-.5,1.2-.7,1-.7.7.7.8.9.3.8-.6.3-1.6,1.8-2.6v-.5l5.1-.9,2.7-.2,2,1.1-.8-.1-.7.2-.4.6-.2,1-.3,1-.6-.1-.7-.4-.5-.1-.4-.1-.6-.4h-.4l-.2.8.1.4.4.6v.4l-.1,1-.3.5-.5-.1-.7-.3-.5,2.3-1.1.7-1.2.4-.9,1.5h1.2l1.4.6,1.2,1.1.5,1.4-.2,1.1-.7,2.3-.2,1.2-1,1.2-2.2,1.1-4.2,1.3.3,1.1.5.9.7.4.6.3,8.2-4.8,2.9-.8v-.7l-1.2-.4-1,.1-.8-.2-.7-.9,3.3-.4h1.6l1.2.8,1.2.4,1.9-.2,1.8-.6,1.2-.7-.4-.3-1.2-1.2,4.5.5,2.3-.6,1.6-1.9-8.6.2-1.4.5-.2.3v.4l-.1.5-.7.1h-.9l-.3-.2-.4-.4.5-1.4-4.1,1.8-2.1-.1-.7-3.1.4-1.7.8-.9,1-.7,1-.9.2-.6-.2-.7v-.6l.5-.2.7-.1.4-.3.1-.7-.1-1,2.7.6-.9,1.6-.2,1.6.5,3.2,1.3-2.5.7-2,1-1.1h2.3l-1.3-2-.3-1,1.3-2.1v-1.5l-.6-1.1-1.3-.1-.5,1-.3,1.6-.5,1.1-1-.5-2.4-2.6-.5-1.2H580l-.7-1.3-.1-1,.6-.4,1.2.6.1-2.2,1.3.6,2.8,2.9,1.7,1.2,1.6.5,1.4-.5,1.2-1.8,1.3,1.3,1.3-.6.7-1.6-.2-1.9,1.1.4,1.2,1.1,1,1.6.4,1.4v1.2l-.1.8-.4.3-1.6.3-.4.4v.7l.4.9,1.4,1.2,1.5-.5,1.3-1.4,1.6-2.1,3.1-3.1,1.1-.4.6,1.3-.6,1.7-4,6.4-.4,1-.1,2-.3.9-.2-.3-1.1.6-.9.8.1.3-.3.2-.7.5h-.7l-.4-1.1V678l-.2-.4-.5.7-.6,1.2-.2,1-1.2-.5v.9l.6,1.3.6,1.1,1.6,1.7.5.9.5,1.6-.4.2-.9.3-.3.1v-.2l-1.6,1-.6.7-.4.6-.6.6-1,.2H588l-2,.6-1.3,1.5-.9-.6-.9-.2-.8.4-.6,1.1-1.2-.5-1.4.4-1.4.9-1,1-.3,1.2H578l2.2-.7.8-.5,1.7.6,1.1-.5,1.1-1,1.4-.9.8-.1.9.3.8.1,1.5-1,1.6-.4.7-.3.8,1,1.1.9,1.1.7,1,.3.9-.3,1.1-1,.8-.2,2.1-.3,1.6-.7,3.2-2.5-1,2.6-1.2,2.4-.5.7-1.6,1.4-.7,1-.4,1-.3,1-.5.8-2.4.7-1.8,1.4-1.2.4.4-1,1.3-2.3.2-.6-.8-.3-1.6,1.7-1-.3.5-1.5-2.2,1.6-1.5,2.5-1.2,3-1.5,2.7-1.8,2.5-.4,1.3.1,1.9.9,3.1.1,1.5-.5,1.7,1.4.3.9,1.3.4,1.4-.3.6.3.4.9.5.8-.2.4-2.1-.4-.5-.7-2.1-.2-1.6,1,1,4.3,7.3.1,1.4.4,1.4.3,1,.5,1.9v1.1l1.7,5.7.4.7.7,1.8,1.7,1,2,.2,1.4-.5-.4,2.5-5.5,10.5-1.3,2-9,9.7Zm-9.7-122.4.5,1.1.1.7-.3.2-.5.3-1.1,1.4-.3.6-.3,1-.3,2.6-.4,1.2-.3.1-1.6-.1-.4.3-.9,1.2-.5.5-1.9.7-.5.3-.4.7-.2.7-.2.5-1,.7-1.1.5-1.1.1-1-.6.3-.4.1-.3v-.3l.1-.5.9-.5.5-.8.1-1-.4-1.1-.9,1-.2.3-.4-1.1-.2-1.3.2-1.3.4-1.1,1.2,1.1.9,1.2,1,.9,1.6.3v-.7l-.9-.8-.8-1-.7-1.4-.2-1.6.2-1.5,1-3.9.4-.9.4.1.1.9.2.8.9.2.3-1.4.4-.9.6-.4,1.1.6.1,1.5-.2,1.8.3,1.7.6-1,2.5-.8,1.2-1.1h-2.7l1.8-1.5.7-.8.7-1.1.8-2.9.4-.7.4,1.5-.1,1.5-.2,1.4-.8,2.6Z" />
            <path id="NZL3402" class="cls-1"
                d="M526.2,708l-2.8-1.4-3-2.8-1.6-2.6-.4-1.3.7-.1,1.5-.7,2.8-2.5,2.7-1.7,1.3-1.4,3-4.2,4.8-4.8,1.9-.8.9-1.5.8-.3.4.3.1.8-.3.9-.2.8,2.6-1.2,1.3-.8,1.1-1.2,1.2-2.4.6-.7.7-.1.7.5h.6l.7-1.1-.8-1.1.7-1.4,1.3-1.2.2-.1v2.6l-.7,3.3-1.3,3.5-1.2,2-2.4,3.1-3.2,3.1-6.7,10.4-3.5,3.6-2.6,1.8-1.9.7Z" />
            <path id="NZL3403" class="cls-1"
                d="M518.4,699.9l.4,1.3,1.6,2.6,3,2.8,2.8,1.4-.8,2.6-.1,1.5-.4,2.2-.1,2.7.3,2.3-.7,1.6-1.5.8-1.9.2-3.5,1-2,3.3-6.1,7.1-2.2,3.7-3.2,4-4.6,4-.7,1.6-.3,1.4-1.3,1.6-2.7,4-.8,3.1-.9,5.5-.7,2-7.8,9.9-2.6,9-1.2-.2-.5-.3-.9-.2h-.9l-.8.2-.6.5-.3,1.1-.2,1.5-2.1,5.9-1,2.2-3.6,4.3-1.4,1.2-1.4.9-2.2.6-1.4-.2h-.7l-.8.1-.5.3-.3.6-.3.6-.4.7-.6.4-.8.2-1.1-.7-1.1-1.5-1.6-3.5-.6-2.5-.6-4.3-.6-1.8-.9-1.3-1.3-.9-1.1-.1-1.9.2-.8-.2-.7-.4-.6-.6-.5-.2-.4-.4-.4-.8-.6-1.3-.5-.9-1.2-.5-2.2.4-1-.2-.9-.7-.8-1.3-.5-1.6-.1-2V775l-.2-1.3-.7-.9-.7-.4-.9-.6-.8-.8-.7-2-.4-1.5-.2-1.1.9-5.1,1.9-1.6.7-1.5.9-2.7.2-2.6-.2-1.7-.2-1-.4-.9-.1-.8v-.7l.2-1.8.4-1,.7-1.1,1.5-1.4,1.3-.7,1.3-.6,3.9-.6.8-.6.1-1.4-.2-1.4.3-1.3.9-1,1.9-.7,1.2-.7,1-1.2.9-2.3.8-2.6.9-4.2.5-1.4.7-1.1,3.7-2.6.7-1.3.3-1.2v-1l-.8-1.3-.1-.7.4-.6,1.2-.7,1-.4.9-.1,2.9.9h1.4l1.4-.5,1.3-1,1.6-1.8.9-1.5.3-2v-1.7l.2-1.7.2-1.2.1-1-.2-.6-1.1-1.3v-.9l.8-.7,5.4-2.2,3.5-3.2.3-.8-.2-.7-.7-.8-1.4-1-3.9-1.2-1-.4-1-.8-3.3-3.5-1-.6-.9-.3-.7-.4-.6-.7-.7-1.2-.6-.9-.4-.9-.4-1.1L464,674l-1-.9-1-.4h-1.6l-2.3.5-.8-.2-.8-.3h-.7l-.6.4-1.5,2.2-.9.1-.7-.8-.3-3,.4-1.7.8-1.2.5-.5.9-1.3.4-1.2-.2-1.3-.9-1.3-1-.8-.9-1-.6-1.3-.7-1.8-.7-1.2-2.5-2.2-.7-1.5-1.1-6.8-.3-1,1,.1.5-.1,1.1-1,2.1-1.5,1-.2.3-.4,4-3.1,7.7-9.6,3.3-3.3,2.9-1.1-1.3,3.3-.1,1.2,1.1.4.4-.5.5-.9.5-.7,1.3.6.7-.3.6-.5.5-.5L473,626l2.3-1.1.1-.9-.9-1.1-.2-.3-1,1-1.1.6-1.1.2-1-.4,3-3.8,3.5-1.9,15.2-.7,5,.6,4.6,1.3,2.5.3-1.7.7-16.7-1.3-1.2.3-.8,1-.7,2.1-.8,4-.7,1.9-1.2,1,.7,2.1-.4.8-1,.1-1.4-.2,1.1,2.8.4.3,1.3.5.4.5v1.7l-1,3,.5,1.7.5-.5,1.6-.9,1.1,2.9,2.6,2.7,6.6,5.3,1,.3,1-.4,1.9-1.5.4-.2h1l.3-.3-.2-1.4.1-.4,1.3-1.3.6.1.8,1.2,1-1.6,1.1-.9,1.1.1,1,1.5.4,1.3v1l-.4,2,.5.9-.1.9-1,1,1.3.3,1.2-.1,1,.3.8,1.5-.2.5-.8,4.5.3,1.9.2.9-.2.7-.9,1.4-1.7,1.8-2,1.6.8.5.5.2.6-.2.8-.5.9,5.1.1,1.6.5,1.6.8,1.3.6,1.4-.3,1.7-.3-1-.5-.8-.6-.6-.7-.4-.5,3.6.2.9,1.2,1.3.5.7.2,1.2h.5l.8-1.3.6,1.3.8,4.2.9,2.8.1.8-.5.6-1.3.7-.3.7.6,1.5,1.3.9,1.7.4h3.6l.9-.2Z" />
            <path id="NZL3404" class="cls-1"
                d="M631.8,188.4l-1.4.9-7.5,6.4-2.3,1.7-.8.9-1,.6-1.1.3h-.3l-.8.1-.7.4-1.9,1.7-.8.6-.6-1.1-1.3.8-1.5,1.4-1.4.8-1.9-.3-1.1-.5-.7-.5-.4-1.7.8-.4,2.3.8,1.2,1.2.6.1.4-2.4,1.2-3.1,1.8-2.4.5-1,.1-.7.1-.8.4-1.4,1.2.6,1-.2.2-.8-.9-1.5-.7-.5-2.9-.9.3,2.9-1,3.3-1.9,2.6-2.2,1.1,1.2-1.6.4-.3-.9-.4-.8.2H606l-.2-.9-.2-1.5-.5-.3-.7.2h-.7l-.8-.3h-.5l-.2-.3-.1-1.4.1-1,.2-1,.7-1.9-1.2.1-.8.6-1.6,1.9.3-2.6-1.2-.1-3.3,2.7.8.8v2.1l1,.4h1.4l1,.2.7.5.8,1.2-.4,1.4v.9l.7.4.5-.2.4-.4.7-1h.7l.8.8,1.4,2.1-2.8.8-.4.2-.2.9-.5.5-.6.2h-.8l-.6-.4-1-1.3-.7-.3-.9-.1-.5-.4-1.8-2.7-.7-1.4-.9-1.4-1.3-1.2-1.4-.3-3.7-.1-.7-.6-.5-.9-1.2-1.2-1.3-1-1-.5-1.2-.7-.6-1.8v-3.7l-.5-1.4-2.2-2.3-.9-2.9-1-1.1-2.3-1.8,2.8-2.6.7-1.5-.3-2.3-.5-.7-.8-.8-.8-.6h-.6l-.1,1.3.5.9.8.7.4.5-.5,2-2.9,1.6-.3,1.5,3.9,5.6.6,1,1.6,1,.6,2.2.4,2.5.6,1.8.5.8,1,2.1.6,1.1.7.5,1,.4.9.6.6,1.9.7.7.8.5.6.6,4.2,6.5,1,.6,1.2-.2,1.1.1.7,1.2-1.6.7.7,1.2,1.6,1.6.8,2.1-.6,2-1.5,1.3-3.6,1.5-3.7.1-1.9-3.3-2.4-9.2-10-13.8-2.8-5.6-17.4-23.5L535.6,135l-.5-1.8.5-1.5,2.6-3.4.6-1.6.1-2.2.6-2.1.9-1.3,1.6.8.4-1,.1-.4.7.9.8,1,.8.9,1.1.4.2-.6-.2-3.3.3-1.2,2.1,3.3.4-1.7v-1.8l.4-1.8,1.3-1.3h.7l.5.4.5.3.9-.7.3-.6.5-2,1.3-2.2-2.8.9-.9-.3V110l-.1-.7-.3-.4-.9-.1-.3.5v3.5l-.8-1.4-1.3-4.5-1.3,1.4.3,1.8,1,1.7.6,1.6-.5,1.6-1.2.9-1.5-.1-2-1.2-.8-.1-.4.3.7,1.9-.5.4-.8.2-.7.3-.7.4-.5-.3-.9-1.4h-.6l-.9.4-1.5,1.2.7,1.4-.5.6-1,.4-.7.9v.5l.2.5.2.3.1-.1-.2,7.1-.3.8-.7.1-.6-.6-6.6-9.3-.9-2.5.4-1.6,2.6-3h-.5l-1.1-.1-.5.1,1.5-1.8.7-1,.4-1.1-2.3.4-1.4,1.5-.9,2.2-.7,2.4-.8-.7-2.4-2.8-.5-1,.7-.8,2.7-2,.9-1.1-1.2-.4-2.2,1.3-1.4.3-1.3-.4-1.1-.9L515,105l-3.1-3.2-.5-1.3.1-1.8,1.1-.5,1.5.3,1.4.7,2.5-3.5,1.5-4.4.3-4.8-1.1-4.7-2.4-5.9-1-1.6-4.7-4.7-1.4-2-2.4-6.1-1-1-1.4-.7L488.7,38.9l-3.1-2.6-6.5-4,.8-.7.5-.7.8-1.8-.2-.7-.1-1.5.4-1,1.3.9,1.7,1,4.5.2,1.9,1.1,1-1,2.4-.6,2.4-1.5,8.7.8,1.4-.3.8-.7.8-.9.9-.3,1.2,1.3-2.2,1.4-.6,1.9.1,5-.2,1.3-.3.7-.6.5-1.3.1-.3-.5-.3-1.1L504,34l-1.1-.4.1-.5.3-1,.1-.5-1.5-.5-.6.1-.6,2.4-.2,2-.6.6-1.3-.8v1l-.3.7-.5.6-.7.4.7.8,2.5,1.8.2-1,.4-.9.5-.6.9-.1-.4,1.4-.2.6-.4.6.8.6h.8l.6-.4.4-.9.5,1.1.1,1.2v5.4l.3.6.7-.6.9-2.2.2-2.8-.5-2.6-1.2-2,2.1,1,1.1,4.6.8,5.4.8,3.7,2.5,2.9,3.2,2.8,2.6,3.2.7,3.9L515,61.1l-1.6-1.3.3,3.4,3.2,3.3,10.3,6-.3,1.1-1.6,2-.5.8-.2,1-.1,3.9.2.5.5-.1.9.1,2.5.7h.6l.6-.9.3-1.1.4-.9,1.1-.5,1-1.1-.2-2.7-1.1-4.5.5-2.1,1.4-.6,1.9-.3,1.8-1.2.5-1.2-.1-1.1-.4-.9v-.6l.9-.9h.6l.5.7.4,1.1v.9l-.1.8-.4,1.6,2.3-1.2.9-.2-.4,1,.2.8,1.1,1.4-3.1,1.4h-3.2l-.8.3-.5,1.5.4,1.8.8,1.6.7,1.2,1,1.5,1.3,1.2,1.5.9,1.7.3,3.8-.5,1.4.5,1.5,2,.8-1.6.2-.4-.8-1.1-1-.9-.8-1.1-.1-1.5.8-1.6,1-.1,1.1,1,.8,1.4.9-.9,1.1-.2.9.5.8,2.1,1.1.5h2.3l.3-.2.2-.5.3-.4.6-.2.7.2.1.5v.6l.2.5.4.7.2.6.3.5.7.2.6.1.5.1,1,.5-1,.5-.4.8-.3,1-.4.9-1.8,1.3-.7.8.1.8,2.6,2.3,1.7-.1.3-.4-.1-.6v-.9l1.6-3.2.1-.6-.2-1.4.1-.5.5-.5,1.3-.2,1.4-.8h1.2l2.2.1-.2.5.7,1.1,1.3,1.6,3.1,2.4,1.2,1.5.5,2.3,1,1.7,2.5.4,4.4-.5,1.9.5,1.9,1.3,1.4,2,.7,2.3-3.2,1-.9-.3-.3-.9V97l-.4-1-.4.2-.6.4h-.8l-.9-1.3-1.9,1.1-.8.6.8.6,1.4,2.2-2.6.4-.2,1.3,1.2,1,1.6-.7.8.5.8.2.8-.2.8-.5,1,1.4-.2,1.3-.6,1.2-.2,1.2.5,1.2,2.9,3,.4.9.3,1.1.1,2.5.3.3.5-1,.5-1.5.3-1.3,1.5.8.8.4.9.1-.2-.5-.2-1-.2-.4,1.2-.1.6.5.5.6.6.3.7-.4.2-.9-.3-1-.6-.4L598,110l-2.2-.6-1.9-1-.7-1.5.5.7,1.1-1.1,1.8-.1,3.9.5-.4-.9-.2-.4.8-.1,1.1.2.8.3v.3l.8-.5.1-.4V105l.4-.9,2.1-2.3,2.4-2,.6,2.4-.7,1.9-1,1.9-.5,2.2.6,2.2,1.3,1,1.7.2,1.7-.1v.6l-.7,1.3,2.3,2.9-1.1,1-.5-.3-2.1-2.3-2.4-1.9-.8-.7,1.3,2.1,2.8,6.3,1.8,1.4,1.5.1,1.6.4V122l.2-.2.3.1.4.3.2.8.2.2.7.7,1.8,3.3.4,1.1-3,.5.3,1.1,4.1,3.3,3.7,4,.7,2.2-1,3.2-1.2-.7-3.5-.5-1.4-.1-.8.5,1.3,1.1,2.9,1.6-.4.1-1.1.6,2,.5.8.3.3.8-.3,1-.6.7-.9.4-.8.2,4.5,2.8.8,1.1v1.1l-.5,2.3.2.9,1.8,3.5-2.1.6-1.5-1-1.5-1.6-1.7-1.2.5-1.7-2.2-.7.1-1.5-1.2.1-1.9.8-1.2.3-.5-.1-.8-.9-.5-.2-.5.3-.4,1.3-.4.3-1.2.1-.2-.2.3-.8V153l-.2-1.4-.4-1.1-.6-1.1-.9-1-.3,2.1.3,5.2-.2,1.6-.4.9-.1,1.3.2,1.2.5.7,1.2.2.7-.8.5-1.2.5-1.1,1.4-.2,5.2.6,1.6.6,1.3,1.7L621,163l-1.3,1.9-1.8,1.8,1.3,1.3.3,2.3-.1,2.5.1,1.7.9,1.2,3.5,2.6,1.4.8,1,.1h1.9l.9.5.7,1.2-.1.9-.4.8-.2,1.1.3,2.2.9,1.2,1.1.9.4.4Z" />
            <path id="NZL3405" class="cls-1"
                d="M648.1,445l-1.3.8-1.7.6-.4.4-.3.4-1.7,3.5.8,3.8,2,3.3,2.7-1.2,1.2,2.3-.2,3.3.8,2.8,1.7,1.9,3.1.7,1.2,2.5v3.1l5.1,1.2,1.5,1.4.8,1.7-.9.6-1.3-.4-.9.3-6.5,8.5-1.6,3.5-1.3.6-1.8.3-2.2,2.4-1.2,3.3-.8,1.4-.2,1.4,3.5,2.5,1.5.8.4,1.5-.3,1-.5.9.1,2.2.7,2.1,2.2,2.9,3.6,3.1,1.1,3.1.7,3-1.2,4.5-.1,4.6.7.8.5,1-1.4,1.3-1.8.5-.8.4-.3.7v2l.2,1.4-1.3,1.6-1.7.6-2.3,1.8-1.9,2.3-1.9,1.2-1.6,1.7-2.1,3.8-2.9.1-6.2-2.3-4.7-.5-2-.5-1.8-1.2-8.2-7.8-1.5-1.9-4.5-7.1-3.1-3.3-3.9-2.2-4.1-1.4-13.2-2.1-4.4-1.5-10.4-7.8-2.9-3.1-2.3-4-1.5-4.6-.4-4.5.4-4.6,1-4.7,2.3-4.5,3.5-2.8,7.9-3.6,19.7-12.4,1.7-.5,10.3.7,3.7-1.2,3.4-2.6,9.2-9.6,1.2-2.1.6-3.6.7-2.3.2-1.3v-3.1l.3-.7,5.4,2.8,6.8.5,1.5-.5,1.1.3,1,.8,1.4,1.6,2.1,1.4Z" />
            <path id="NZL3406" class="cls-1"
                d="M445.2,645.5l.3,1,1.1,6.8.7,1.5,2.5,2.2.7,1.2.7,1.8.6,1.3.9,1,1,.8.9,1.3.2,1.3-.4,1.2-.9,1.3-.5.5-.8,1.2-.4,1.7.3,3,.7.8.9-.1,1.5-2.2.6-.4h.7l.8.3.8.2,2.3-.5H462l1,.4,1,.9.4,1.1.4,1.1.4.9.6.9.7,1.2.6.7.7.4.9.3,1,.6,3.3,3.5,1,.8,1,.4,3.9,1.2,1.4,1,.7.8.2.7-.3.8-3.5,3.2-5.4,2.2-.8.7v.9l1.1,1.3.2.6-.1,1-.2,1.2-.2,1.7v1.7l-.3,2-.9,1.5-1.6,1.8-1.3,1-1.4.5h-1.4l-2.9-.9-.9.1-1,.4-1.2.7-.4.6.1.7.8,1.3v1l-.3,1.2-.7,1.3-3.7,2.6-.7,1.1-.5,1.4-.9,4.2L452,730l-.9,2.3-1,1.2-1.2.7-1.9.7-.9,1-.3,1.3.2,1.4-.1,1.4-.8.6-3.9.6-1.3.6-1.3.7-1.5,1.4-.7,1.1-.4,1-.2,1.8v.7l.1.8.4.9.2,1,.2,1.7-.2,2.6-.9,2.7-.7,1.5-1.9,1.6-.9,5.1.2,1.1.4,1.5.7,2,.8.8.9.6.7.4.7.9.2,1.3v1.4l.1,2,.5,1.6.8,1.3.9.7,1,.2,2.2-.4,1.2.5.5.9.6,1.3.4.8.4.4.5.2.6.6.7.4.8.2,1.9-.2,1.1.1,1.3.9.9,1.3.6,1.8.6,4.3.6,2.5,1.6,3.5,1.1,1.5,1.1.7.8-.2.6-.4.4-.7.3-.6.3-.6.5-.3.8-.1h.7l1.4.2-.4,2-.3,1-.5,1.2-1,2.1-.3,1.1-.4,1.2-1,1.1-1.9.9-1.5.3-2.2,1-3.9,3.5-4.8,3.7-1.1,1.3-.8,1.6-.7,1-1.6,1.6-.8,1.5-.9,1.1-3.4,2.8-2.1,4.2-2.2,2-2,1-1.4.5-2.3.2-1.1.3-2.3,1.7-1.5,1.3-1.8,2.7-1.8,2.2-.4,1.2-.3,2-4.7,2.9-4,1.2-.4.5-.3,1.1-.6,2.8-.9,2.8-.3,1.4-.4,1.3-.9,1-1.1.7-3.9-.1-2.8.6-3.2.3-2.9.8-.6.1h-.4l-.5-.4-.8-.2-1,.1-2.8,1.1-1.6,1.2-1.2.7-1.4.3-2.6.2-3.1,1.3-1.8,1.3-3.3,3.3-1,1.9-.5,1.6-.3,1.2-.9,1.1-1.5.9-6.1,2-1.6-.2-3,1.9-4.8,8.4-2.9,1.9-7.7,4-13.5,10.8-7.5,8.4h-2l-1.3-.5-2.6.4-3.7,1.5-10.4,6-7.7,2.7-2.4,1.5-6,5.4-2,2.4-1.2,2.3-1.1,2.7-2,2.9-2,2.4-1.5,2.9-1.7,1.8-2.1,3.8-12,10-2.6,3.1-2.7,2.6-4.1,4.9-2.3-1.3h-1.4l-2,.3-1.3,1.9-1.1,2.2-1.5,2.1-2.3,1.2-2.8,2-3.2,1.6-2.6,2-3,1.6-2.5-.7-2-1.1-1.3-1-2.3.1-2.9,1.6-4.8.7-3.8-.2-3.2.5-3.6,1.6-3.6,3-.8,1.1-.9,1.9-2.7,3.4-2.7,1.6-1.8,1.7-1.4,1.8-.8,2.3-.5,2.1-1.9,5.2-1.7,2.7-2.9,3.1-2.2,1.3-5,.7-15.1,7.3-9.6,1.1,2.2-8.7.6-1.8.7-2.5-1-1.9-.8-2.2-1.6-2.3-1.5-1.8-2.6-1.8-2.7-1.2-3.9.2-4.2,1.4-.7-.9-1.9-.8v-.7l3.6-1.3,1.5-.9,2.8-3.3,4.8-3.3,3-3,2.6-3.3.1-.6v-1.1l.3-1.4.6-1.3.8-.8.9-.8.9-.5.8-.4-.5-.3-1.5-1.2,1.5-.8,1.5-.5,4.8-.3,2.8-.6,2.6-1.4,1.6-1.1.7-.8,1.1-.6,2,.2.6-.3,1.9-1.8,1.3.7,1.2,1.9,1.6,1.7,3.7.6,4.4-1.4,4.2-2.7,4.6-4.7,3.6-2.4,1.5-1.5,1.3-1,4.9-2.7,1.3-1.1.4-.9v-1.1l.3-.9.6-.6,2.1-1.3.7-.3,1.5-.8,2.9-3.5,1.4-.8,1.5-.6,5.6-3.8,3.9-1.3,2.1-1.1.9-1.6.3-.8.9-.9.9-.7.8-.2,2.1-.2.6.1.7.1.7-.1.9-.6,1.1-1.2,3.1-.9,2.6-2,3.1.7,1.7-.2,4-3.2,1.6-.4,1.2-.9,2.6-4,1.2-1.3.4-1.2.1-1.3,1.5-1.9,2-.4.9-1,.1-1.4.5-2.3,1.6-2,1.7-1.4,10.2-5.1,1-1.7.7-2.8,1.7-.6,1.1-1,.7-1.7.6-1.5.8-.7,1.8-.8,2-1.4,1.1-.5,1.2-.3.9.3,1.6,1,.9.3,5-8-2.4-.5-2,2.1-1.7,2.8-1.8,1.3,1.5-4.6,2.6-3.1,2-1.5.7-1.6v-.8l5.7-.4,1.7-.8.6-.7-.6-.9,1.4-1.1,1-1.6,1.2-.9,1.7.7.2-1.7.9-.4.5-.8,3-1.9,6.9-2.5,3-2.4,2.5-.4,1.2-.1.8-.1.7-.8.9-1.2.9-.7,2.8-1.4,1.4-1.6,2.7-4,1.4-.9,1.3-1.1,6.6-11.5,1-1,.8-.3,1.5-.7,1.4-1,.6-1.3,1.1-2,.8-.9.8-.4,1.2-.8,1.3-1.9,1.9-3.7,1.4-.8,5.5-11.4,1.6-1.9.8-1.5.2-3.4.5-2.4,3.8-5.8,1.6-4.7,2.1-15.4,1.4-3.8.3-2.3.8-2.6.4-.8,2.6-3.2,1.1-1.9.8-2.3,1.3-6.6,1.1-2,.7-3.4,1.6-3.9-.5-1.2-.6.8-.3-.8-.1-.5-.1-4.9,1.2-.9,4.6.7,5.4-.8,1.4.1h.6l3.8-1.7,7.3-4.7,1.9-2.3.7-.5,1.1-.3,1.1.2.7-.2.6-2.4.6-.7.7-.5.8-.7,1.1-1.8,2.8-6.4.4-.5.4-.1.2-.4.2-2.1.1-.2.2-.2.4-.3.6-1,.4-.9.3-1.2v-1.2l.9-1.5,2.1-1.7,2.2-1.5,1.6-.6-.3-.9v-1l.1-1,1.1-2,.1-1.2.1-2.2.2-2.5.4-1,.7.3.4-.1.7-.5.9-.4.9-.1-1.5-2.9-.4-1.2-.7-11.3.2-1.3.7-2.3.1-1-.5-5.3V661.6l-.4-3.1v-1.8l.7-.8.9-.1.7-.2.5-.7,1-2,1.9-2.4.3-.6.1-1.1.2-.4.5-.6h1l.5-.3.3-.4.2-.7.3-.6.5-.3h.2Z" />
            <path id="NZL3407" class="cls-1"
                d="M247.9,979.1l.6,6-.9,2.6-2,3.3-1.3,2.9-1.7,2.1-1.8,3-1,2.1-1.6,2.5-.2,2.3v19.5l.2,2.7.5,1.6,2.4,1,2.2,2,1.2,2.8,1.2,7.1,1.5,2.1,1.7,1,2.2-.3,2.1,2.9,4.3,4.6,5.7-.7,2.5,1.1,2.3,3,1.8,3.9,2.5,7.8,2.7,6.5,2.3,3.7,1.6,2.1,2.4,1.3,5.5.4,6.8-1.5,2.9.2,1.5,1,.9,2.1-.2,2.4.4,3,.8,2.8,1.7,2.8,1.6,1.6,7.5-4.4,12-11.1,2.7-1.4,3.1-.8h3l6.5-1.8,13.7,3.8,8.1,3.3,3.6.7-.7,1.6-.3,1.7-5.2,9.8-8.6,8.9-4.1,9.1-1.9,7.8-1,2.3-.9,2.8,1,1.3,1.4,1.3-.2,2.5-2.8,3.4-.7,1.5-.1,1.2.3,1.2.2,1.4-1,2-2.2,1.5-1.6,1.7.6,2.7-.9,1.3-1,.6-1-.1-1.3-1,.1,1.2.2,1.1.7,2.1-1.3,1.3-1,.4-2.7-.1-1.6.6.1,1.1,1.1,1.1,1.7.2-1.8,4-.6.6-.8.3-1,.6-1.6,1.4-.6.2-.5-.2-.4.1-.1,1v1l.1.6.3.2.7.1,1.1.4,1.1.7,1,.1,1-1.2,1.4,1.2,2,1.1,1.6,1.1v1.5l-1.4,1-3.7.8-1.5.8-1.5,2.4-.6.7-.7.3-.8.2-.8.4-1,2.8-2.8,1.9-.8,1.9,1.5-.8,2.7-.7,2.4-2.1,3.5-1.4,1-1,1.2-2.5.9-1.3,1.1-.7.9-.3.9-.5.8-1.5.8,1.4.3,1.7-.2,6-.7,1.5-1.1.5-1.7.2-1.6-.1-.3.1-.8.7-.4.7v.8l-.1.6-16,1.6-6.5,2.3-5.8,4.2-4.4,6.5-1.2,2.6-.3,1.3-.3,3.4-.7,2-.1,1-.6,2.4-1.4,2.1-1.7,1.7-1.6,1.1-4.1,1.7-1.9,1.2-1.7,2-1.3,2.1-1.5,1.7-10.6,7.6-2.7,3.8-1,5.8.2,3-.4,1.1-2.2.9-1.8,1.5-.6.4-1.3-.2-2.6-1.1-1.3-.2-1.3.2-2.3,1-1.2.3,1.2.5,6.2.3-1.5,3.9-2.5,1.7-2.7,1.1-2.6,2.2-1.1-.2-2-.8-2.1-.5-1.6.7-1,.9-4.1,2.5.5.5.7,1.3.5.6-2.1.6-2.6-.8-2.4-.1-1.4,2.6-1.6-1.3-.5-.3-2.7-.4-1.3.1-1.1.7-1.5,1.7-1,.7-.9.3-2.7.4-1-.2-1-1,.3-2.3-.2-1.3h-.2l.3-6,1.3-2.4.9-2.9-.1-2.2-3.1-4.4-.4-2.4v-2.9l-.6-3-1-2.8.6-3.4,1.1-2.8.5-3.2.2-7.2-2.5-6.2-.9-3,.2-2.9-.9-3.8-2.1-3.7-2-2.9-.7-3.5-.1-3.3.4-3.1-.4-2.8-1-2.4-2.2-2.1-1.3-1.5-.4-3.8-.4-2.3-.2-2v-3l.5-3.6,1.2-4.8,4.7-9.8,5.4-14.2,3.2-3-1.3-4.7-7.1-7.9-2.8-1.6-3.4,1.8-8.5,12.4-3.4,1.6-3-.5-2.6-1.1-1.9-3.8-4.9-7.1-2.2-5.5-1.8-.9-13.5,6.2-5.1.4-3-.1-3.8-2-1.1-3.3-.1-3-2.4-5.2-1.3-3.7-.4-3.2,2.8-9.2-.2-2.1-4.3-2-2.2-2-2.1-2.9-1.5-3.4-.8-3.5-.4-4.1,1.6-4.2,1.3-8.7-.3-3.9,2-8.1,1.5-4,2.7-4.7,2.6-3.3,2.5-1.8,1.7-1.7,9.6-1.1,15.1-7.3,5-.7,2.2-1.3,2.9-3.1,1.7-2.7,1.9-5.2.5-2.1.8-2.3,1.4-1.8,1.8-1.7,2.7-1.6,2.7-3.4.9-1.9.8-1.1,3.6-3,3.6-1.6,3.2-.5,3.8.2,4.8-.7,2.9-1.6,2.3-.1,1.3,1,2,1.1,2.5.7,3-1.6,2.6-2,3.2-1.6,2.8-2,2.3-1.2,1.5-2.1,1.1-2.2,1.3-1.9,2-.3h1.4l2.3,1.3Z" />
            <path id="NZL3408" class="cls-1"
                d="M76.7,1338.7l-1.8.6-.6-1.4.9-1.6,1.9-1.2,1.7-.2.8,1.5-1,.9-1.9,1.4Zm19.1-6.3,1.1.3.7-.1.3,1-.3.4-.2.1v.5l-.6.5-.7-.1v-1l-.4-.4-.3-.5.4-.7Zm-22.1-3.8-.6,1.2.1-.5-.1-.7-.1-.6.4-.4.3-.1.1.4v.3l-.1.4Zm64.5-26.6-.5.2-.9-.4.2-.8.6-.5.6.8v.7Zm-42.4-13.9-1.2.4-1-.4-.5-1.5.3-1.5.9-.7,1.2-.2,1,.3,1,.9-.8,1.9-.9.8Zm67.4,0-.7,1.1.3-1.2-.5-1-.8-1.1-.7-1.4,1.2-.1,1.2-.5.8-1,.5-1.5,1.2,2.5-.9,2.4-1.6,1.8Zm-46.6-10.3,1.5,1.2,1.3,1.6,6.9,9.7,1.1,1.2,1.3.9,1,1,.5,1.6.9.3,1.8,1,.9,1.4-1.5,1.5,1.6.8v.7l-1.9.7-7-.7.5-1.5-4.3-.2-1.5.8.8,2.1-.2,1.3-3.8,5.3,2-.2,2.6-3.5,1.7-.9.8.3,2.1,1.6,2,.6,3,1.3-.3.8-.2.6-.4.5-.6.4v.7l.9.1,4.1-1.5,1-.1,1-.6.6-.2.3.4.2.9.6.9.7.6.6.3-.4,1.1-.5,2.8-.2.8-.8.5-.9-.1-.9-.3-1.1-.1v.8l3.5,2.3,1,1.2.2.7-.6.3-.8.2-.6-.1-.4-.4-.6-1.4-.6-.5-1.7-.1-.4.8.5,2.8-.9.5-2.6-1.1.9,1.7h-5.8l-4.8.9-1.9.9-4.8,4.5-1.4,1.9-1.1.8h-1.3l-1.4-.7-1-.9-1.2-.7-2.8.5-.9-.1-.8-1.4-.5-1.6-.6-.9-1.6,1.5-1.3.4-.6.3v.5l-.5,2.7-1.2-.9-4,3.2-2.2.8,1.3,1.5,2.4-.4,4.7-1.9-.9,2.2-.9,1.5-2.4,2.6v-2.8l-.9.1-1.4,1.4-1.1,1.6-1.4.8-2.6.6-2.6.2-1.6-.5-.4-2.2.5-2.9.9-2.7.9-1.8.8-.7,1.5-.3,1.5-1.2,2.7-1.4-1.3-.9v-1l.5-1.2.4-1.4-.1-1.7-.3-1.4v-1.2l.6-1.6.8-1.1.8-.8,1.8-1.2,1.3-.5,1,.3.9.5,1,.1,1.4-1.5-.3-2.7-.6-3,.3-2.5,1-.6h2.3l1-.9,1.2-2.2.5-1.2.2-1.6-.4-2.5-1.1-2.4-2.6-4-.4-1.2.3-1,.6-.8.3-.9v-.7l-.2-.5-.2-.5-.4-.6-.3-.8.1-.6.4-.6.1-.6.4-3.2,1.1-1.6,1.7-.6,2.4-.1,2,.8,1.2.2,1-.6,1.1-1.1.9-.2,3.6,1.9Zm-79.4-15.2.1.7-1-1.2-.7-.9,1.1-.1.5.1.1.5Zm70.7-11.9-.3.3-.6-.7-.8-.1.2-.3,1-.1.3-.3.2.6v.6Zm-95-35.7-.7.4-.3-.3.1-.4-.2-1.2.1-1.5,1-1.1,1.2-.3,1.1.6.4.9-.5.9Zm-6.8-8.6-.4.7-.4-.3-1.1-1.5v-.7l.4-.6.7.1.7.4h.5l.2.2-.4.6-.2,1.1Zm.9-3.1-.2.1-1-.4-.1-.6.2-.6.2-.1.5.2.4.6Zm2.9-4.4-1.5,1.8H7.7l-.9-.4-.2-.3.2-.4.4-.5.1-.5.1-.2,1.3-.5h.4l.3-.2H10l.2.6Zm14.8-26.7-8.4,3.2-.6-.2-.4.2-2.2.3-.4-.2v-.2l-.3-.2.3-.4,1.7-.3,1-1,2-.1,2.9-1.4,3.7-.3h.5l.4.3-.2.3Zm-20.4,2.3-1.5.1-.4-.5v-.4l.3-1,1.6-.5H5.5l.7-.6,1.1-.1,1.1.5v.6l-.9.5-.9.2-1.1.6-1.2.6Zm25.2-1.8H27.6l-1.2-.6.4-.4-.6-.3v-.6l.8-.9.9-.5,4.6.5.4.5.1.6-.4.3Zm-8.2-14.3,1,2.1.6,2.5.3,2.4-.3,2.4-.9,1.8-1.4,1-1.7.2-.2-.6-.5-1.1-.6-.5-.6,2-.6.4h-.7l-.6-.2-.4-1.1-.4-2.2-.3-2.2.1-1.3-1.1-2.1-1.3.2-4.8,5.7-1.2.9-1.7.5.4-1.4.8-2,.9-1.8.9-.8.2-.3.9-1.7.6-1.6.9-.3,1.9.1,6.2-2.2,1.4-.1.7.2Zm23.4-35.8-2.6.5-1-.3-1.4-1.4-1.2-.8-1.7-.6-1.5-.8-.6-1.5-.9-1.4-.1-.8.7-.4-.1-.5.5-1,4.7-7.5v.5l.1.3.2.3.2.4.7,3.9,1.1,3.7,2.9,7.4Zm166.2,146-.9-.3-.7.8v2.5l-.9.8-.2.6-.2.5-.4.3h-2.4l-1.3-.5-.8-1-.6-1.1-.5-.6-1,.2v1l.2,1.3-.3,1.4-2,1.3-2.6-.7-2.7-1.4-2.1-.7-2.5.1-1.4-.2-.9-1.4-2-7-.1-1.1-.4-1.3h-1.1l-2.3.9-7.9,1.5h-2.6l.6-1.2,1-.4,1-.1,1.1-.6-1.5-.9-2-.5-3.8-.1.6,1.6,1,1,.4.8-1,1.2.3.3.5.9.3.3-4.2,1.4-13.2-1.4.9-1.9.5-.6.6-.5,1.1-.4,2.8.1.9.3.8,1.3,2.2.4,1.4-.6-1.8-1.9-2.2-.9-6.7.1-3.1-2-1.5-.3-.7,1.9.5,2.3,2.3,3,.9,2.1-2.1-.4-2.8-3.4-1.7-.9-.3-.5-.1-1-.5-1.1-2-.7-.6-.6-.3-1-.2-1.3,2.4-.7h.8l.8.3.2.3v.5l.3.8.5-.8,4-3.4.8-3-.6-3.6-1.4-2.6h-2l.7,2.8-.8,2.6-1.5,1.6-1.6-.1-.9-1.6-1.6-4.6-4.1-7.7-1.3-1.4-2.1-.6-7.6,1.4-1.1.6v1.3l.2,1.3-.2.6-1.1-.4-1.3-.6-1.3-.5-1,.4-2.3-.4-1.5.1-.7,1-.4,1.2-.9.3-.9-.1-.8-.3-1.1-.6-.6-.1-.5.2-1.2,1.1-.5.2-.8-.4-.8-.7-.7-1.1-.9-.4-.7-1-1-2.1-.8-.8-1.8-1-.9-.8,1-.7,1.1-.4.9-.7.8-1.3-4-5.3-1.9-3.2v-2.2l-1.2-1.1-3.1-.3-1.6-.5-3.6-2.4-1.1-.3-8.8-1-.7.3-.4.7-.1,1.9-.3.8-.9,1.8-.3,1.5-.1,1.5-.5,1.6-1,1.4-1.2.3-2.6-.2-1.2.5-2.4,1.5-1.1.4-1.5-.2-3.2-1.2-1.7-.1-1.2.3-.7.4-.4.4-.6.3-.4-.4-.3-.7-.3-.3-.9-.2-4.9-2.4H47.3l-1.3.3-1.3-.1-5.2-1.4-10.6.2-5.2-.9-4.3-3.2-2.3-3.1-.4-1.1.5-.7,2.2-1,.8-.6,2.9-3.4,2.6-3.8,2.2-5.1,1.2-2.3,1.6-1,2.3-.5,3.5-3,1.9-1.1v-.7l-1.7.2-4.7,2.9-3.3,1.2-1.8,1.1-1.2,1.4-.2,1.2.1.9.3.7-.2,1-.3.3L23,1207l-.1.5-.2-.1-.7-.9.1-.6.3-.8v-1l-.9-.8-1,3.5-2.4,1.4-5.6,1.3v-2l.2-1.7.7-.9,1.2.8.3-3.6.9-2.4,1.4-1.7,2.2-1.4,4.6-1.2,2-.9,1.3-2.5-2.6,1.3-2.7.9-1.1-.1-1.4-.4-1.2-.7-.2-.7,4.2-5.1.7-1.2.1-.8-.8-.9-.8.1-.9.7-.7.8-.3.5-.3.8-.3.7-.1.7-1.4,1-.5.5-2.1,3.4-.3,1.1-1.1,1.2L6.2,1198l-1,.7-1.8,2-.6.4-.6-.6-.6-1.3-.4-1.4v-.9l.3-1.2-.1-1.5L1,1192v-10l.5-2.5,1.3-1.1,5-.8h5.3l-.6.8.6.8,1.9-1.7,2.3-.6h4.8l1.9-.4,4.1-1.6,2.1-.3,2.3.4,1.1-.1.8-.7.7-.8.7-.7,1.6-1.2,3.7-1.7,1.6-1.3,1-2.3-3.3,1.4-1.2.2-5.5-.7-7.2,2.1-1.8-.6,1.4-3.3.9-1.1,1.4-1,4.1-1.2,1.2-1-7.5,1.1-1.3-.4-.5-2.6v-2.5l.9-1.8,1.8-.7,2-.4,3.9-2.1,2.3-.4,4,1.5,2.1.1,1.7-1.6-2.6.1-1.2-.5-.9-1.2,5-1.6,2.2-1.7.7-2.7L36,1149l-6.3,1.3-4.2,2.4-.9.1-1.7.5-.8.1-1.4-.2-.6-.4-1-2v-1.7l2.9-6.2,1.4-6.6.8-1.7,3.4-1.9,3.8,1.6,3.7,2.5,3.3.8-.9-2.6-1.2-2.8-1.2-.9-.9,2.5-1.4-1.2-3.1-1.5-1.3-1-1-1.3-.3-1.2.5-1.4,1-1.8,2.6-2.8,1.7-1.3.8.4.6,1.8,1.4,1.4,3.2,1.6-.7.5-.6.7-.5.8-.3,1.1,2.5-.3,2.2-1,2-.2,2.2,2.2.6,1,.3,1-.1,1.1-.8,1.4-2,1.6-.8,1,.7.5,2.6-.2,1-.6,1-1.1.5-1.4.3-1.5.5-.6,2.1,2,1,.6.8.9.5,2.6,1.4,3.7.3-.3.2-.4.6.5,1,.5.5.5-.4-3.6-4-5.2-7.8-7.8,1.1-1.5,1.3-.8,7.9-2.3,1.4.1.8.9,1.3,2.6,1.1,1,1.4.5,1.6.1,1.4-.7.9-1.4-1.3-.4-2.7.2-1.1-.8-.7-1.2-.2-.5.1-2.1.5-1.2.6-.5v-.1l-2.9.1-2.9,1.3-2,.6-6.2.6-1.4-.8-.1-1.4-.7-2.2-.5-2.2-1.4-1.2-.3-1.2-.3-4.9.6-1.8,1.7-1.2,2.3.1,1.8,1.3,3,4.2.9.7,1.3.5h1.2l.6-.8-.4-.7-2.8-2.3-2.8-3.7-1.6-1.4-1.9-.1,3-5,1.9-1.9,1.7.5,2.9,4.9.2,1.6-.1,1.4.1,1.2.9,1,.4-1.5-.3-2.2.4-.8,1.2-.6,4.6.6-1.1-1.4-4.4-1.6-1.6-1.1-1.3-1.8-.9-1.8-.2-1.8,1.1-1.7,1.8-.7,2,.6,2.1,1,2,.6,1.6.8,1.9,1.7,1.7.9,1.1-1.2-1.4-.4-9.3-5.4-.9-.9.3-1.6,1.3-1.5,3.9-3.3,1.2-.7,1.5-.3,1.8-.1-.4-.5-.7-1.2-.4-.5,5.9-3.6,2.5-.1,1.1,3.3.2.5.6.6.5.8.2,1.1-.2,1-.7,2.1-.1,1,.6,1.5.9,1.1.6,1.4-.5,2,2.8.3,1.4-.2-.3-1.2-.3-.6-.3-.8-.1-.8-.1-.8-.2-.7-1.6-1.6-.2-1.1.2-1.5v-1.8l-.5-1.5-.6-1.2-1.1-3.5-.2-1.3.9-3.7,2.3-2.4,2.8-.4,2.4,2.4.6,1.4-.2.8-.7.8-.7,1.5-.4,2,.3,1.6.7,1.3,1.4,1,.2-2.4.6-1.6.8-1.5.6-1.9-.1-2.2-2-2.3-.5-1.9-.9-1.4-.2-.8,1.5-.8.8-.7.8-.5.9.6,1.4,2.1,1.3,1.3,1.4.8,2,.6-1.3-.8-2.9-3.6-2-1.8-.3-1.2.6-1.5,1.2-1,4.1-1.2.6-.7.6-1.5.4-.7.5-.3,1.3-.5.6-.4,2.2-2.4,2.2-1,2.3.6,3.4,3.1,2.6,1.5,1,1.2,2.4,4.7.5-1.2.2-1.6-.2-1.7-.5-1.4-.4-.4-1.8-1-2-2.3-.5-.3-.4-.1-.3-.2-.4-.8-.2-.8.2-2.9-.5-3.2-.5-1.6-.6-1.2,1.8-2.7,6.4-7.3,2.2-2,2.8-1.9,1.9-2.5-.3-3.5h6.9l.7-.4.9-1.9.1-1.7-.3-.3,4.2-1.4,3.9-.2,2.7,1.2,2.6,1.8,1.5,1.8,1.6,2.3.8,2.2,1,1.9-.7,2.5-.6,1.8-2.2,8.7-1.7,1.7-2.5,1.8-2.6,3.3-2.7,4.7-1.5,4-2,8.1.3,3.9-1.3,8.7-1.6,4.2.4,4.1.8,3.5,1.5,3.4,2.1,2.9,2.2,2,4.3,2,.2,2.1-2.8,9.2.4,3.2,1.3,3.7,2.4,5.2.1,3,1.1,3.3,3.8,2,3,.1,5.1-.4,13.5-6.2,1.8.9,2.2,5.5,4.9,7.1,1.9,3.8,2.6,1.1,3,.5,3.4-1.6,8.5-12.4,3.4-1.8,2.8,1.6,7.1,7.9,1.3,4.7-3.2,3-5.4,14.2-4.7,9.8-1.2,4.8-.5,3.6v3l.2,2,.4,2.3.4,3.8,1.3,1.5,2.2,2.1,1,2.4.4,2.8-.4,3.1.1,3.3.7,3.5,2,2.9,2.1,3.7.9,3.8-.2,2.9.9,3,2.5,6.2-.2,7.2-.5,3.2-1.1,2.8-.6,3.4,1,2.8.6,3v2.9l.4,2.4,3.1,4.4.1,2.2-.9,2.9-1.3,2.4-.3,6Z" />
            <path id="NZL5468" class="cls-1"
                d="M722.6,235.8h-1.4l-.6-.2-.9-.5-.2-.3.1-.4.2-.4.1-.3.1-.3-.1-.3-.1-.3-.5-.4-.6-.2-.6-.4-.4-1,2.1-.7.5.8.8,2.5.9.1.6.4.5.6.4.9-.5.3-.4.1Zm9.5,71.4-3.1,1.2-.4,3.7-1.6,2.6-1.4.6-.3,1.7,1.8,1.6-.2,1.2-2.5-.7-2.3-1.3-.9,1.4-.6,1.5,1,1.2.8,1.8-.6,1.5-.2,2.3,1.3,2.7.1,2.8,1.5,3.5,1.9,3.1,2.7,6.7,1,7.9.6,1.2,2.1,2.7-.1,2.1-.6,2.3,1.2,4.1.9,1.6,1.2.3,1.3.1,2.6,1.2.8,2.7,1.8,1.7,2.3,1.4,5.5.9,3.4,3.3,1.2,1.5-.1,2.2,1,4.1.7,4.1,1,2.7,1.3,2.2.8,1.6.9,1.2,11.7,5.3,2,1.9.8,3.8-1.8,7.8-1.5,2.7-4.6-2.2-1.4,1-.5,2-.9,2.2-1.7.8-1.9-.1-1.1-.8.2-1,.5-1.2,1.2-1.3.5-.8.1-1.2-.3-1.2-.8-.8-1-.4h-1.1l-.7.4-1.2,1.1-.7.5-1.2.5-1.3.2h-2.6l-.4-.4-1.6-2-1.6-.9-1.4-1.4-2,2.1-.9,1.2-.7,1.5-1.1.3-1.1.2-.7,2.2.8,2.1,4.4,1.2,6.4,2.6,1.2,1.4-1.8,4.3-.9,3.9,3.1,3.6,1.7,3.7-1.4,1.5-1.7.6-5.1-2-1.6-.1-.7,2.3-.5,3.2.9,1.4,1.9,4,2.2,3.7,2,1.9,2.4.5,1.8-1,1.3,1.3,1.5,9-3.6,6.1-3.8,4.8-2.1-.7-4.5,1.6-5.8-.2-3.4.4-.4.3-.2.6-2.1,2.5L728,487l-.9,1.2-.5,1.3-.8,1.3-.6,1.5-.4,1.6-.9,1.2-3,1.5-3.2-.4-7,.1-6.7-2-.3-3.9,1.8-3.6,1.6-4.2,1-4.6-.7-2-1-1.6.5-2.3,1.3-1.9,1.3-2.8v-2.1l-2.5-.2-2.5.4-2.7-1.6.6-3.6.7-1.2-.2-1.6-1.5-1.8-.4-2.4,1.4-2.8v-2.8l-2.2-1.9-1.4-2.7,2.7-4.3,1.7-4.1,1-3.3,2.2-2.5,1.2-2.8-1-1.1-2.2,1.4-2.3.8-3.2-1.5-2.6-1.8h-4.8l-4.6,1.1h-1.8l-1.3-1.2-1.6,1.1-.4,1.1-.1,1.1-.8.3-1,.6-1.3,1.1-3.1,1.7-1.9.3-3-.6-3.2-.2-.8.6-.7.5-.8-.4-.9.2-1.6,1.3-1.8.9-4.8.9-.6,1.3.3,1.8-1.9,3.2-.2.9.1.8-2.9,1-2.7,1.7-2.1-1.4-1.4-1.6-1-.8-1.1-.3-1.5.5-6.8-.5-5.4-2.8.1-.3,1.2-.4-.5-1.7.2-1.5.5-1.5.3-1.7.2-17,.6-3.7,2.7-6.2,1-3.4.6-3.8.4-5.8.7-3.5.1-2-.3-1.8-.7-1.8-.4-1.7.4-1.4,1.2.6,1.4.2,1.5-.3,1.2-.5.1,1.1.4.9.5.8.5.5h.5v-1.4l1.2.9.9,1.3,1.1.7,1.6-.8-.6-.4-1.6-1.7,2.1-.7,2.4.3,2.1-.2,1.4-2.1h-1.4l-.6.2-.6.6-.6-.8.2-1.9-1.5-1.4-2.2-.7-1.5.4-.6,1.1-.3,1-.5.7-1.2.2-.8-.6-.1-1.4.3-1.6.3-1,.7-1.1.7-.3.7-.1,1-.5,2.5-2.7,1.2-.9.1-1.9-.9-1.7-1.8-.2-1.2,1.7-.7,2.3-1,1.2-2.1-1.5-.3-1.8.6-9.3,2.1-4.6,3.6-1.3,4.4-.1,4.2-.6-.3-.9-.5-.6-.6-.4-.8-.1,1.1-.8.8-1.1.3-1.4-.6-1.5-3.2,2-.3.5-.3,1.1-.4.4-.3-.1-.5-.3-.5-.2-2.4,1.1-1.3-1.5-4.9-19.1-4.5-10.8-.8-4.4v-1.1l.7-1.2.9-.5,2.2-.6.9-.5.8-1.9.7-2.2,1-1.8,1.9-.8.2-.4-.4-.7-.8-.4-1.1.6-.7.6-1.5,1-.7.6-2.2,4-1.1.5-1.7-1.5-1.1-1.7-1.5-3.5,4.5-.7,4.6-3.1,6.7-2.1,8.3-2.1,8.7-2.1,7.1-1,.4-6.8,1.7-5.2,1.6-3.7,2.5,1.6,4.2-2.3.4,1.2.2,1.4v2.2l-1,6.7.3,2.3.9,2.1,1.2,1.8,1.2,1.4,2.8,1.6,3.4.1,3.5-.9,3-1.4.6-.6.3-.7.4-.5,1.1-.2.6.4.2,1.1v2.1l.4,1.9,1,1.2,1.4.2,1.4-.9-1.2-.3-.8-1.1-.5-1.4-.3-3.1-.7-2.5-.2-1.3-1.3-2.9-.3-1.4.1-5.1-.3-1.2-.4-.8-1.8-5.9-.5-1.1-.8-1.1-.9-1-2-1.4-.8-.9-.4-1-.3-1-.4-1-1-.9,1.7-.6,1.8.3H697l1.1-1.6h-2.5l-1.2-.2-1.1-.6,1-.3,1-.2.8-.5.5-.9h-.7l-.5-.3-.5-.2-.4-.2,3.8-1.1,1.3-1.2-.4-2.3-1.2.8-.4.5-.5-1-.4-.9v-1l.4-1-1.7-2.9.5-2.6,1-2.3-.3-2.2-.7-.3-.9-.1-.7-.4-.4-.8-.2-.2-1.4-2-1.4-.8-2.8-1.1-1.3-1.2-.7-1.2-.4-1.6-.2-3.7.7-1.4h1.5l1.9.4,2.6-.6.5.5.3.8.5.8.3.8.1.3.3.3.6.3,1.6,1.6.8.1,2-2.3,1.4,1.8.9,2.4-.1,2.5-1.7,1.9,1.6,1.3h1.8l1.3.5.6,2.5.2,2.4-.2,1.3-.8-.4-1-.9-.7.2-.3.9.5,1.1.8.4,2.3-.4.8.3.5,1.1-.3,1-.5.9-.2,1,.5,2.8,1.1.3,3.1-2.5-1.1-.5-.5-.1.6-.9.9-.3,1.1.2.9.6.9.5,1.1-.6,1.9-1.5,1.4-.5,1.1-.1,1,.4,1,1.2.9.1,1-.6.8-.1.2,1.6-.4,1.3-.8.3-2.2-.3-.4.5-1.5,2.8-1,.7-1.9.8-1,.8-1.2,1.7-1.2,2,1,.7-.1.7-.3.7.2.8.9.9.9.6.6-.1-.1-1,1.3-1-.6-3.1,1-1.3,1.6.9,3.2-.7,1.8,1.5.3,1.1-.1,2.4.3,1.1,1.2,1.6.3.7.4,1.3.4,4.6-.2,3.1v.5l.1,1-.4,1-.7,1.1-.3,1,.4.6.8-.5.9-1,.5-.8,1.4,1.8-.3,2.4-1.1,2.6-1.3,2.1-.1.9.8.3,1,.2.7.3.2,1.2-.1,2.8.4,1.3-.7-.5-.6-.8-.4-1-.4-1h-.6l.4,2.4.5,2.1.2,1.7-1.1,1.1,2.6,1.2.9.9.8,1.8.7,3.8.3,3.9.2.7Z" />
            <path id="NZL5469" class="cls-1"
                d="M650.2,656.8l-1.2.4-.5-.2-.3-.5.2-.6.3-.5,2.4-2.5.4-.6.7-1.8.4-.3.6-.1.4-.1.7.4.2.5-1.3,2.5-3,3.4Zm107.1-9-2.7,6.8-1.2,4.8-1.2,2-3.8,1.6-1.6,1.8-1.3,2.4-.9,2.1-2.5,9.3-1.6,3.9-7.8,11-11.8,9.7-2.8,3-3.9,2.8-4.5,2.4-16.9,13.4-5.3,2.1-1.3.9-2.5,2.9-1.3.6-5.9.5-1.2-.7-.7-3.2-1.2-1,.4-1.5-.4-1.2-.6-1-.5-1.3-.1-1.4,1.2-7.7-.3-1.1-.9-.7-9.2-3.6-2.1-.2-1.9.5-1.8,1.2-3.8,4.2-.7.5-.8.2-1.3-.3-1.7-1.3-1-1-.2-.9,1-1.9-.1-1.7-.5-1.9-.1-2.5.6-2.2,1.7-4,.3-2.6-.9-2.3-2-.6-2.3.4-1.6.7-1.2,1-.9,1-.6,1.3-.5,1.6,3.6.9,1.1,1-.5,2.4-.5.8-.7.7-.8.1-.9-.6-.8-.3-.9.7-.9.9-1,.5-3.6-.7-3.7-2-2.9-2.9-.7-3.6.9-2,1.4-.8,3.5-.7,1.3-1.1,3-3.7,1.9-1.8,1.9-4.3,1.2-1,1.6-.8,1-1.1.8-.1,1,2.7,1-1,.4-.9v-1l-.3-1.4-.4-.2-1-1.3-.5-1.3.6-.7.9-.4,1.3-1.9.9-.4.9-.3,1-.7.9-.9.6-.9.6-1.3.2-1,.3-2.6,1.6-4.6.7-1.5,4.6-5,2-3.5,2.4.1,8-1.7,10,.2,5.8-1.6.3.2,4,1.3,2.1.8,12.2-1.4,11.9-1.8,15-2.1,10.4.4,7,1.7,2.4,3.3,2.6,1.4Z" />
            <path id="NZL5476" class="cls-1"
                d="M436.8,1.3l1.1.2.3-.3.2-.2h.9l.1.4-.3.3-.7.1v.3l.2.5v.3l.3.2-.3.1-.3.1h-.5l-.5-.3-.3-.4-.4-.5-.5-.3-.1-.6.1-.2.3.1.4.2Z" />
            <polygon class="cls-1"
                points="126 1231.5 126 1231.5 126 1231.5 126 1231.5 126 1231.5" />
            <polygon class="cls-1"
                points="690.3 580.3 690.3 580.3 690.3 580.3 690.3 580.3 690.3 580.3" />
            <polygon class="cls-1"
                points="631.3 263.5 631.3 263.5 631.3 263.5 631.3 263.5 631.3 263.5" />
        </g>
    </g>
</svg>