<svg xmlns="http://www.w3.org/2000/svg" viewBox="0 0 455.8 709.2"><defs><style>.cls-1{fill:#7c7c7c;stroke:#fff;stroke-linecap:round;stroke-linejoin:round;stroke-width:2px;}</style></defs><title>NorthIsland</title><g id="Layer_2" data-name="Layer 2"><g id="Layer_1-2" data-name="Layer 1"><path id="NZL3334" class="cls-1" d="M271.5,457.8l.4,4.7,2.3,3.6,5.2,1.5.8,2,.4,1.9.4.6-.1.9-1.6,1.3-.3,1.5-.6,1.5.4,1.2,1.7.8,2.1,1.8-.9,2.5-.4,3.1.4,5.6-1.7,1.2-2.5.7-2.4,1.2-3.5,4.7-1.6,1-1.1,1.1.9.6.9.3.5,1.2-.5,1.6.8,2.5,1.2,2.2-.3.6-.7.2-.3,1.2-.1,1.3-3.6,12.9-.8,6.7-1.7,7.7-.1.7.3,1.2,1.4,1.8,1.6.5,5-.2,4.6,4,1.1.7,1.3.2.6.2.6.4.4,1.2-.2,1.4.3,1.5.9,1.1,2.6,2.6.2,1.9-.5,1.7v2.7l2.2,5.4.2,3.1-.4,3.5-.2,3,2.3,2.6,2.7,1.9,8.2.7,2.3,1.2,3.1,2.9-.1.8-1.4,2.3-1.8.1-2-.4-1.5.4-4.4,7.4-4.6,4.6-.7,1.3-.1,1-.3,1.2-.4,1.1-1.6,2.9-.5.4-1.3.2-.5.4-.5.9-3,7.6-1.8,2.9-2.6-1.4-2.4-3.3-7-1.7-10.4-.4-15,2.1-11.9,1.8-12.2,1.4-2.1-.8-4-1.3-.3-.2-5.8,1.6-10-.2-8,1.7-2.4-.1,2.3-3.8,3.6-8.1,2.1-7,.8-1.7.7-2.1.3-5.7.4-2.3v-.5l-.1-.7.1-.6.2-.2h.6l.7-.2.5-.3-.5-1.6-.2-1.5-.1-1.5.1-.9.7-1.7.9-5.8.3-4-.1-1.1-.4-.9-1.3-2.3-1-6.6-1.4-5.5-1-2.6-1.2-2.3-5.9-6.1-1.5-2.8-7.1-8.1-5.4-3.4-4.2-2-2-.4h-3.4l2.1-3.8,1.6-1.7,1.9-1.2,1.9-2.3,2.3-1.8,1.7-.6,1.3-1.6-.2-1.4v-2l.3-.7.8-.4,1.8-.5,1.4-1.3-.5-1-.7-.8.1-4.6,1.2-4.5-.7-3-1.1-3.1-3.6-3.1-2.2-2.9-.7-2.1-.1-2.2.5-.9.3-1-.4-1.5-1.5-.8-3.5-2.5.2-1.4.8-1.4,1.2-3.3,2.2-2.4,1.8-.3,1.3-.6,1.6-3.5,6.5-8.5.9-.3,1.3.4.9-.6-.8-1.7-1.5-1.4-5.1-1.2v-3.1l-1.2-2.5-3.1-.7-1.7-1.9-.8-2.8.2-3.3-1.2-2.3-2.7,1.2-2-3.3-.8-3.8,1.7-3.5.3-.4.4-.4,1.7-.6,1.3-.8,2.7-1.7,2.9-1-.1-.8.2-.9,1.9-3.2-.3-1.8.6-1.3,4.8-.9,1.8-.9,1.6-1.3.9-.2.8.4.7-.5.8-.6,3.2.2,3,.6,1.9-.3,3.1-1.7,1.3-1.1,1-.6.8-.3.1-1.1.4-1.1,1.6-1.1,1.3,1.2h1.8l4.6-1.1h4.8l2.6,1.8,3.2,1.5,2.3-.8,2.2-1.4,1,1.1-1.2,2.8-2.2,2.5-1,3.3-1.7,4.1-2.7,4.3,1.4,2.7,2.2,1.9v2.8l-1.4,2.8.4,2.4,1.5,1.8.2,1.6-.7,1.2-.6,3.6,2.7,1.6,2.5-.4,2.5.2v2.1l-1.3,2.8-1.3,1.9-.5,2.3,1,1.6.7,2-1,4.6-1.6,4.2-1.8,3.6.3,3.9,6.7,2,7-.1,3.2.4,3-1.5.9-1.2.4-1.6.6-1.5.8-1.3.5-1.3.9-1.2,3.1-1.1,2.1-2.5.2-.6.4-.3,3.4-.4,5.8.2,4.5-1.6,2.1.7Z"/><path id="NZL3396" class="cls-1" d="M404.5,439.6l-2.5-3.9-3.5-.6-8.3-7.3-12.8-14.6-.2-7.5-6.8-4.6-1.5,5.2-16.4-9.9,1.3-2.6-.7-3.4-.1-3.2,5.2-3.7,9.3-3.9,2.9-2.7,1.6-3.1.3-3.5-.5-1.8.7-1.5,1.9-.8,2.1-.3,2.1-1,1.9-1.5,1.7-1.8,1.2-.5,1.1-.7.4-1.2.4-1.2,1.6-1.8.3-2.2.1-3.8-.9-2.3.9-.8,2.6.8,2.9,3,3.1,2.6,3.3,2,3.1-4.2,4.4-15.4,4-7.6,2.9-2.9,2.1-3.7-.7-2-1.8-.1-2,1.6-1.7-1.4.3-2.3.6-1.9.1-3.2-.8-2.8-.4-.9.2-1.1,1.7-.8,4.4-1.4,1.5-2.5.1-1.6,15.4.8,1.8.5.9.8-1,1.1v.6l.9.5,1.5,1.5.8.7,1.3.5,1.3.2h2.7l.9.3,1.5,1.3,1,.3h2.4l1,.2,1.1.5,1.2,1,1.7,1.8,1.2,1.9-.1,1.7-.7.9-1.4,2.4-2.9,3.1-1.6,4.5-1.1,2.4-2.7,2-1.2,2.1L441,341l-.9,1.6-1.2,1.6-.6,1-.3,1.1.6,2.3,1.1,2,.9,2.1-.5,2.6-1.2,1.3-1.6,1.2-.7,1.5,1.9,4.1-.2,2-1,1.9-1.1,1.7-.5,2,1.1,2,1.5,1.7.8,1.3-.3,1.1-.6,1-1.3,1.3-.3,1.3-.2,2.2-.5,1.2.9.4.8.7.5,1-.1,1.4-.5.8-2.9,1.6-.3.8v6.4l-.4.8-8.7,9.7-7.9,7-1.3.7-3-2.8-2-.5-1.9.5-1.7,1.2-.6.4-.5-.2H406l-.1,1.2v.5l.3,1.1.1.4,1.5,1.5.6,1.1-.2,1.2-1.3,2.4-.5,2.2-.1,5.2-.8,5.8-1,3Z"/><path id="NZL3397" class="cls-1" d="M404.5,439.6l-.2,3.9-.6,1.6.7,2-.6,1.4-1.1,1.5-.5,1.9,5.3.6,2.5,1.3,1.1,2.5-4.2,4.4-1.8,5-.7,3.2-.9,1.1-1.3,1-1.1,1.3-2.1-6.1-.6-3.2.1-2.9.3-1.7.6-1.6.7-1.4.7-1.1.1-1.2-1.1-.8-1.4.1-1.1,1.6-.8-.4-2.3-1.7-1.2-.4-12.1-.6-12.5-.3-1-.4-.7-.7-.7-.2-2,1.8-14.3,7.1-10.5,5.1-.9,1.2-.4,2.2-.8,2.1-1,2-1.9,2.5-2.8,3.1-1.8,1.4-.2.3-.9,2.8-1,1.2-.5,1.2-.2,1.3-.1,1.7.3,1.7.6.9.9.7.9,1.1.5,2,.5,9.3.2,1.9.6,1.7h.4l.5.6,1.3.7,2,1.5.5.5,1,.7h1.4l2.6-.3,2.4.6-.2,1.4-1.4,2-.8,2.4-.4.8-.8.8-1,.6-1.7.7-.6,1.1-1.8,6.7v.3l.1.5.1.6-.2.7-.3.2-1.2.5-.4.3-1,1.9-2.6,8.9-1.6,4.1-1.1,1.7-.3.9-.1,1.3.2,2.6-.1.6-.1.5-1,1.5-.2.5-1.3,3.5-1.9,3.7-3.1,4.5-3.3,3.2-.7.3-.7-.4-.6-.8-.7-.4-.9.6-1.9,2.8-.7,1.6-.3,2.1.5-.9.6-.7.7-.4.9-.2-5,10.2-.7,6.4-3.1-2.9-2.3-1.2-8.2-.7-2.7-1.9-2.3-2.6.2-3,.4-3.5-.2-3.1-2.2-5.4v-2.7l.5-1.7-.2-1.9-2.6-2.6-.9-1.1-.3-1.5.2-1.4-.4-1.2-.6-.4-.6-.2-1.3-.2-1.1-.7-4.6-4-5,.2-1.6-.5-1.4-1.8-.3-1.2.1-.7,1.7-7.7.8-6.7,3.6-12.9.1-1.3.3-1.2.7-.2.3-.6-1.2-2.2-.8-2.5.5-1.6-.5-1.2-.9-.3-.9-.6,1.1-1.1,1.6-1,3.5-4.7,2.4-1.2,2.5-.7,1.7-1.2-.4-5.6.4-3.1.9-2.5-2.1-1.8-1.7-.8-.4-1.2.6-1.5.3-1.5,1.6-1.3.1-.9-.4-.6-.4-1.9-.8-2-5.2-1.5-2.3-3.6-.4-4.7,3.8-4.8,5.2,5,6,2,1.2-1.5-.9-2,1.9-1.4,2.2-.6-.2-2.7-.6-3.3,3.8-4.9,5.7.1,3.8-.5,1.1-.5-.6-1.7-.2-2.6,1.1-2.3,3.8-4.1,2.9-4-.3-3.2.5-1,.5-.9-.2-5,1.6-2.4,2.3-1.6,1.9-1,6.6-1.8,4.4,2.6,2.2.5h1.9l1.3-1.3,1-1.4.6-1.4.6-1.5,1.3-1.5,1.5-1.2,1-.3.5.3,1.5-.7,1.1-1.8,3.6-1.4.6-1.1.7-.9,1-2.3,1.9-.6,1.4-.7,16.4,9.9,1.5-5.2,6.8,4.6.2,7.5,12.8,14.6,8.3,7.3,3.5.6,2.5,3.9Z"/><path id="NZL3398" class="cls-1" d="M194.2,226.3l-.1.9.6,2,.1.9-.2.7-.4.3-1-.2-.6.1-1.6.5-1.6.2-1.6-.2-3.1-1.2.5-.7-1.7-1.7-.7-.1-1,.8-.8.3-.3-1.1.2-1.7.6-1.1H186l.9.5.6.9.8.5,1.4-.9,3.4-3,1.7-1,.4.3.8,1,.7,1.4-.6.5-1.1.3-.8.8ZM172.9,195l-1.2.4-2.7-.1-.8-.4,1.2-.8V193l-.8-2.4.2-1.1,1.1-.7,1.2.5,1,1.1.4,1.3.5,2.3-.1,1Zm17.3-21.3-1.3.2-1-.1-1.5-2.1,1.1-1.8,1.9-1.1,1.1.1.3.6.7.8.6.9v1.2l-.7.9-1.2.4Zm15,75.1-4.2,2.3-2.5-1.6-1.6,3.7-1.7,5.2-.4,6.8-7.1,1-8.7,2.1-8.3,2.1-6.7,2.1-4.6,3.1-4.5.7-1.6-4-.8-3-1.8-3.5-.3-.9-.5-2-3.2-6.2-.6-2.7,1.3-.1,2.1.5,3.1-1,1.1.4.8.8-.2,1-.7,1.1-.1.6,3.9,7.6.3,3.1,1.1,2.5,1.3,1,.8-2.2-.9-2.5-.2-1.5.9-.7,2.3.4,1-.1,1.1-.9h-1.5l-3.9-.7-1.4-.6,1.2-.6,4.1-3.7.6.2-.1,2.1,3.2-3.8,1.7-1.4,1.9-.2,3,3.4,1,.6,1.1-.5.2-1.1-.4-1.3-.7-1.1.2-1.1-3.9-1.5-1.5-1.3-1.2.4-.7-1.2-.6-1.9-.7-1.4-1.9,2.4-1.2-1-.1-2.1.9-1.2.9-.3.9-.7.7-.9.4-1.1-5-.9-5.2.3-2.6.7-2,1.6-.7,1.2-.5,2.3-.3,1.1-.8,1h-.6l-1.8-1.7-1.1,1.7-1.7,1.5-1.8.6-1.5-.8-.9-1.7-3.1-11-1.7-9-1.5-4.3-4-7.4-10.6-13.4-2.3-4.4-.4-4.4.2-1.1.3-.9.6-.5,1-.2-.9,2.7-.1,1.3.4,1.3,1.3-2.5.7-1,1.1-.4,1.1.7,1.2,3.1,1.5,1.5,1.8,3.1,1.1.8,1.3.3.7.9-.1,1.1-1.1.9,3.1,1.2.8.1.1.3-.8.5-1.1.4-1.1.2.7.5.3.8-.1.9-.4,1,1,.1.7.3,1.5,1v-.7l.1-1.3-.1-.7.8,1.4.8,2.2.7,1,.8-1.9.9.1.3-1.1.1-1.6.4-1.4.5-.6,1.2-1.1.4-.9-1.2.4-.4.2-.7-1.8.8-4.3-.6-1.1-.7,1.4-.3-.7v-5l-.1-.3.3-.5,1.3-1.4-.6-1.1-.9-1-.7-1.1.3-1.1,1.7-1.5-.1-.6-2.4-1.5h-.5l-1.3,1.7-1,.9-.6.4-4.6.4-2.4-.6-1.7-1.6-.5-3.1,1,.6.6-2.3.9-.2,1,.7,1.2.5,3.3-.2,1.6-.5,1.2-.9,1.2-1.3,1-.6,2.3-1.1,2.1-1.9.8-.4h.6l.5-.3.2-1.3-.4-.4-.2-.1-.1-.2-.3-.6,2.3-1.7,7.5-6.4,1.4-.9.9,1.1,4.4,6.7,2.4,2.8,3.2,2.3,2,.8.1.5-.5,1.3v.3l.3.1.2.2-.2.4-.3.2-.3-.1-.1-.3-.1-.1-.4.3-.3-.2-.2.1-.2,1.1.6,1.7,1.7.7,2.2.3,1.8.6-2.3.4-6.3-.3-1.4.2.2,1.3,1.1,4,1.3,2.5.1,1.7-.2,1.7-.3,1.5-1.6-4.5-1.2-1.9-2-.8,1.4,4.2-.2,1.6-1.7.1v.7l.7.3.7.4.6.5.6.7-.5,1-1.7,1-.4.7v1.3l.8,1.7.2,1.3v1.9l.4.3,1,1,.7.6,1.1.3,2.1.1,3.3-1.3h.9l.8.7-.3.5-3.6,2.1-1.9.7-1.2-.1-3.3-1.3,1.6,1.7,1.2,2.4,4.6,14.4-1.7-.5-1-.9-1.1-.3-2,1.1-.6-.5-.3-.6v-.7l.4-.9-1.5-.3-1.1-2.6h-1.1l-2.7,1.4-1.3.8-1.2,1.4v.7h.6l2.7-.4,1.4.4-.7.7-1.1.7-.8.8.4.7,1.3.8.3.3v.6l.1,4.1.3,1.3,1,.5.6-.5.1-1.1-.1-1.4.2-1,.5.8.6-1.1.7-1,.9-.7.9-.5,1.2-.2,3.6.8h4.9l1.6,1.1-.2,2.9-.8,1.1-.7.7-.4.8.3,1.9.4,1.2.5.7.5-.2.7-1,2.1-10.6h.5l1.7,4.6.6,2.2-.1,2.5,1.7-.5h2l1-.8-1.3-2.3-.3-1.6,1.8-.5,2.5.3,1.6.7.9,2.2-.9,4.4,1,1.7,1.2.3,1-.4.8-.6,1.3-.4,1.8-1.3.5.2.4.4.4.1,2.5-1.2.7-.1.8.3,1.7,1.4.9.3.7.4,2.7,3.4.5.9Zm9.1-84.7.2,1.1,1.1,1.1,2,1.3,2,.8.7.1.7.4-.4.8-.7,1-.4.8-.3,1.4-.4,1.1v1.1l1,1.6.3.4.4.3.4.2.5.1.2.1v.4l-.1.5.1.3,1.5,2.1.6.5-1.5,3.3-.7.7-1.1.1-.6-.7-.3-1.2v-1.2l-.4-1-1,.3-1.2.7h-.8l-.4-1-.2-2.4-.3-.8-.6-.5H214l-1.9.5.3-.9v-.6l-.3-.5-.5-.7-1.8.6-2.2-1-1.8-1.9-.5-2.3,2,2.5.6.2.7-.8v-1.2l-.2-1.3.3-1,.6-1.6-1-.9-1.6-.8-.9-1.6,2.3.1,1-.4.9-1-1.5-1.6-.3-1.9.9-1.4,2-.3.7.3.7.5.5.9.2,1.2.3.6,2.3,1.7-1.5.8Z"/><path id="NZL3399" class="cls-1" d="M417.2,301.3l-.1,1.6-1.5,2.5-4.4,1.4-1.7.8-.2,1.1.4.9.8,2.8-.1,3.2-.6,1.9-.3,2.3,1.7,1.4,2-1.6,1.8.1.7,2-2.1,3.7-2.9,2.9-4,7.6-4.4,15.4-3.1,4.2-3.3-2-3.1-2.6-2.9-3-2.6-.8-.9.8.9,2.3-.1,3.8-.3,2.2-1.6,1.8-.4,1.2-.4,1.2-1.1.7-1.2.5-1.7,1.8-1.9,1.5-2.1,1-2.1.3-1.9.8-.7,1.5.5,1.8-.3,3.5-1.6,3.1-2.9,2.7-9.3,3.9-5.2,3.7.1,3.2.7,3.4-1.3,2.6-1.4.7-1.9.6-1,2.3-.7.9-.6,1.1-3.6,1.4-1.1,1.8-1.5.7-.5-.3-1,.3-1.5,1.2-1.3,1.5-.6,1.5-.6,1.4-1,1.4-1.3,1.3H331l-2.2-.5-4.4-2.6-6.6,1.8-1.9,1-2.3,1.6-1.6,2.4.2,5-.5.9-.5,1,.3,3.2-2.9,4-3.8,4.1-1.1,2.3.2,2.6.6,1.7-1.1.5-3.8.5-5.7-.1-3.8,4.9.6,3.3.2,2.7-2.2.6-1.9,1.4.9,2-1.2,1.5-6-2-5.2-5,3.6-6.1-1.5-9-1.3-1.3-1.8,1-2.4-.5-2-1.9-2.2-3.7-1.9-4-.9-1.4.5-3.2.7-2.3,1.6.1,5.1,2,1.7-.6,1.4-1.5-1.7-3.7-3.1-3.6.9-3.9,1.8-4.3-1.2-1.4-6.4-2.6-4.4-1.2-.8-2.1.7-2.2,1.1-.2,1.1-.3.7-1.5.9-1.2,2-2.1,1.4,1.4,1.6.9,1.6,2,.4.4h2.6l1.3-.2,1.2-.5.7-.5,1.2-1.1.7-.4h1.1l1,.4.8.8.3,1.2-.1,1.2-.5.8-1.2,1.3-.5,1.2-.2,1,1.1.8,1.9.1,1.7-.8.9-2.2.5-2,1.4-1,4.6,2.2,1.5-2.7,1.8-7.8-.8-3.8-2-1.9-11.7-5.3-.9-1.2-.8-1.6-1.3-2.2-1-2.7-.7-4.1-1-4.1.1-2.2-1.2-1.5-3.4-3.3-5.5-.9-2.3-1.4-1.8-1.7-.8-2.7-2.6-1.2-1.3-.1-1.2-.3-.9-1.6-1.2-4.1.6-2.3.1-2.1-2.1-2.7-.6-1.2-1-7.9-2.7-6.7-1.9-3.1-1.5-3.5-.1-2.8-1.3-2.7.2-2.3.6-1.5-.8-1.8-1-1.2.6-1.5.9-1.4,2.3,1.3,2.5.7.2-1.2-1.8-1.6.3-1.7,1.4-.6,1.6-2.6.4-3.7,3.1-1.2.2.8,1.4,3,.3,1.5.2.7,1.1.8.3.8v1.3l-.4-.2-.6-.6-.6.2-.6,1.5.7.6,3.1.5,1.3.6,1.4.9,1.2,1,1.1,1.1.8,1.3,1.2,2.9.6,1.2,2.2,2.1,1,1.2.3,1.7-2.8-2.2-.9-.5-1.2-.1-1.1.2-1.2-.2-1.3-1.2.8-.5,2.4-.9-2.7-1.8-1.3-1.3-1-1.2-1.5-.9-2-.2-3.6.7.4.6.7,1.1.4.4-.3.5-.2.7-.1.8.1.6.5.8.5.1.4-.2h.2l.4.3.8.2.3.2.2.5-.2.6-.3.5-.1.4.3,2.1.1.5.4.5.4.2h1.4l.6-.2.4-.5.3-.4.3-.2,1.3.6.7,1.2.4,1.4.8,1.5,1.2-.9.7.6.7,1,.8.6,1.1-.5.4-1,.5-.8,1.5.2,1,.7.4.9.1,1.2v1.6l.4.9h.9l1.3-.4,1.1-.2-1-4.7-1.8-2.9-.4-1.3,1.1-.4,1.5,1.3,2.7,5,1.9,1.1,2.1.5,4.6,2.3,2.2.5.9.4,1.9,1.8.9.4h2.3l.4.4.3.7.6.3.9-.7,15.4,11.3,3.1,1.5,4.9.8,4.6,1.8,5.2.8,4.3,2.7,7.1.9,2.9,1.7h-4.5l-.8.2.4.6,3.6,2.6,1,.4,1.1.2,1-.5.2-1.2-.4-1.3-.5-1,1.3-.4.7.5.7.7,1,.5h5l.2.2.8,1.5.5.3.3-.2.4-.3.4-.2.3-.3v-1.4l.5-.3.9-.1,2.3-.5,6.9-.5,1.8-1.2,1.4-1.3,6-3.7,2.3-2,.8-1.1.3-.9v-2.4l1.3-2.4.3-1,.4-.6,3.2-1.7,1.2-1.7.9-3.6.9-1.7,1.1-1.4.5-.8.2-1.2.6-.7,7.7-2.2,1.5-.1,1.4-.4,1-1.1,1.8-2.8,1.2-.7,3.5-.3,1.4-.7,1-1.1.3-.9-.4-1.1-.9-1.5,3,.6,3.6.2Z"/><path id="NZL3404" class="cls-1" d="M153.7,164.8l-1.4.9-7.5,6.4-2.3,1.7-.8.9-1,.6-1.1.3h-.3l-.8.1-.7.4-1.9,1.7-.8.6-.6-1.1-1.3.8-1.5,1.4-1.4.8-1.9-.3-1.1-.5-.7-.5-.4-1.7.8-.4,2.3.8,1.2,1.2.6.1.4-2.4,1.2-3.1,1.8-2.4.5-1,.1-.7.1-.8.4-1.4,1.2.6,1-.2.2-.8-.9-1.5-.7-.5-2.9-.9.3,2.9-1,3.3-1.9,2.6-2.2,1.1,1.2-1.6.4-.3-.9-.4-.8.2h-.7l-.2-.9-.2-1.5-.5-.3-.7.2h-.7l-.8-.3h-.5l-.2-.3-.1-1.4.1-1,.2-1,.7-1.9-1.2.1-.8.6-1.6,1.9.3-2.6-1.2-.1-3.3,2.7.8.8v2.1l1,.4h1.4l1,.2.7.5.8,1.2-.4,1.4v.9l.7.4.5-.2.4-.4.7-1h.7l.8.8,1.4,2.1-2.8.8-.4.2-.2.9-.5.5-.6.2h-.8l-.6-.4-1-1.3-.7-.3-.9-.1-.5-.4-1.8-2.7-.7-1.4-.9-1.4-1.3-1.2-1.4-.3-3.7-.1-.7-.6-.5-.9-1.2-1.2-1.3-1-1-.5-1.2-.7-.6-1.8v-3.7l-.5-1.4L99.7,154l-.9-2.9-1-1.1-2.3-1.8,2.8-2.6.7-1.5-.3-2.3-.5-.7-.8-.8-.8-.6H96l-.1,1.3.5.9.8.7.4.5-.5,2-2.9,1.6-.3,1.5,3.9,5.6.6,1,1.6,1,.6,2.2.4,2.5.6,1.8.5.8,1,2.1.6,1.1.7.5,1,.4.9.6.6,1.9.7.7.8.5.6.6,4.2,6.5,1,.6,1.2-.2,1.1.1.7,1.2-1.6.7.7,1.2,1.6,1.6.8,2.1-.6,2-1.5,1.3-3.6,1.5-3.7.1-1.9-3.3-2.4-9.2L95,163.9l-2.8-5.6L74.8,134.8,57.5,111.4l-.5-1.8.5-1.5,2.6-3.4.6-1.6.1-2.2.6-2.1.9-1.3,1.6.8.4-1,.1-.4.7.9.8,1,.8.9,1.1.4.2-.6-.2-3.3.3-1.2,2.1,3.3.4-1.7V94.8L71,93l1.3-1.3H73l.5.4.5.3.9-.7.3-.6.5-2L77,86.9l-2.8.9-.9-.3V86.4l-.1-.7-.3-.4-.9-.1-.3.5v3.5l-.8-1.4-1.3-4.5-1.3,1.4.3,1.8,1,1.7.6,1.6-.5,1.6-1.2.9L67,92.2,65,91l-.8-.1-.4.3.7,1.9-.5.4-.8.2-.7.3-.7.4-.5-.3-.9-1.4h-.6l-.9.4-1.5,1.2.7,1.4-.5.6-1,.4-.7.9v.5l.2.5.2.3.1-.1-.2,7.1-.3.8-.7.1-.6-.6L48,96.9l-.9-2.5.4-1.6,2.6-3h-.5l-1.1-.1-.5.1L49.5,88l.7-1,.4-1.1-2.3.4-1.4,1.5L46,90l-.7,2.4-.8-.7-2.4-2.8-.5-1,.7-.8,2.7-2,.9-1.1-1.2-.4-2.2,1.3-1.4.3-1.3-.4-1.1-.9-1.8-2.5-3.1-3.2-.5-1.3.1-1.8,1.1-.5,1.5.3,1.4.7,2.5-3.5,1.5-4.4.3-4.8-1.1-4.7-2.4-5.9-1-1.6L32.5,46l-1.4-2-2.4-6.1-1-1-1.4-.7L10.6,15.3,7.5,12.7,1,8.7,1.8,8l.5-.7.8-1.8-.2-.7L2.8,3.3l.4-1,1.3.9,1.7,1,4.5.2,1.9,1.1,1-1L16,3.9l2.4-1.5,8.7.8,1.4-.3.8-.7.8-.9L31,1l1.2,1.3L30,3.7l-.6,1.9.1,5-.2,1.3-.3.7-.6.5-1.3.1-.3-.5-.3-1.1-.6-1.2L24.8,10l.1-.5.3-1,.1-.5-1.5-.5-.6.1L22.6,10l-.2,2-.6.6-1.3-.8v1l-.3.7-.5.6-.7.4.7.8,2.5,1.8.2-1,.4-.9.5-.6.9-.1-.4,1.4-.2.6-.4.6.8.6h.8l.6-.4.4-.9.5,1.1.1,1.2v5.4l.3.6.7-.6.9-2.2.2-2.8L28,16.5l-1.2-2,2.1,1L30,20.1l.8,5.4.8,3.7,2.5,2.9,3.2,2.8,2.6,3.2.7,3.9-3.7-4.5-1.6-1.3.3,3.4,3.2,3.3,10.3,6L48.8,50l-1.6,2-.5.8-.2,1-.1,3.9.2.5.5-.1.9.1,2.5.7h.6l.6-.9.3-1.1.4-.9,1.1-.5,1-1.1-.2-2.7-1.1-4.5.5-2.1,1.4-.6,1.9-.3L58.8,43l.5-1.2-.1-1.1-.4-.9v-.6l.9-.9h.6l.5.7.4,1.1V41l-.1.8-.4,1.6L63,42.2l.9-.2-.4,1,.2.8,1.1,1.4-3.1,1.4H58.5l-.8.3-.5,1.5.4,1.8.8,1.6.7,1.2,1,1.5,1.3,1.2,1.5.9,1.7.3,3.8-.5,1.4.5,1.5,2,.8-1.6.2-.4-.8-1.1-1-.9-.8-1.1-.1-1.5.8-1.6,1-.1,1.1,1,.8,1.4.9-.9,1.1-.2.9.5.8,2.1,1.1.5h2.3l.3-.2.2-.5.3-.4.6-.2.7.2.1.5V55l.2.5.4.7.2.6.3.5.7.2.6.1.5.1,1,.5-1,.5-.4.8-.3,1-.4.9-1.8,1.3-.7.8.1.8,2.6,2.3,1.7-.1.3-.4-.1-.6v-.9l1.6-3.2.1-.6L88,59.4l.1-.5.5-.5,1.3-.2,1.4-.8h1.2l2.2.1-.2.5.7,1.1,1.3,1.6,3.1,2.4,1.2,1.5.5,2.3,1,1.7,2.5.4,4.4-.5,1.9.5,1.9,1.3,1.4,2,.7,2.3-3.2,1-.9-.3-.3-.9v-1l-.4-1-.4.2-.6.4h-.8l-.9-1.3-1.9,1.1-.8.6.8.6,1.4,2.2-2.6.4-.2,1.3,1.2,1,1.6-.7.8.5.8.2.8-.2.8-.5,1,1.4-.2,1.3-.6,1.2-.2,1.2.5,1.2,2.9,3,.4.9.3,1.1.1,2.5.3.3.5-1,.5-1.5.3-1.3,1.5.8.8.4.9.1-.2-.5-.2-1-.2-.4,1.2-.1.6.5.5.6.6.3.7-.4.2-.9-.3-1-.6-.4-1.7-.1-2.2-.6-1.9-1-.7-1.5.5.7,1.1-1.1,1.8-.1,3.9.5-.4-.9-.2-.4.8-.1,1.1.2.8.3v.3l.8-.5.1-.4v-.4l.4-.9,2.1-2.3,2.4-2,.6,2.4-.7,1.9-1,1.9-.5,2.2.6,2.2,1.3,1,1.7.2,1.7-.1v.6l-.7,1.3,2.3,2.9-1.1,1-.5-.3-2.1-2.3-2.4-1.9-.8-.7,1.3,2.1,2.8,6.3,1.8,1.4,1.5.1,1.6.4v-.4l.2-.2.3.1.4.3.2.8.2.2.7.7,1.8,3.3.4,1.1-3,.5.3,1.1,4.1,3.3,3.7,4,.7,2.2-1,3.2-1.2-.7-3.5-.5-1.4-.1-.8.5,1.3,1.1,2.9,1.6-.4.1-1.1.6,2,.5.8.3.3.8-.3,1-.6.7-.9.4-.8.2,4.5,2.8.8,1.1v1.1l-.5,2.3.2.9,1.8,3.5-2.1.6-1.5-1-1.5-1.6L143,134l.5-1.7-2.2-.7.1-1.5-1.2.1-1.9.8-1.2.3-.5-.1-.8-.9-.5-.2-.5.3-.4,1.3-.4.3-1.2.1-.2-.2.3-.8v-1.7l-.2-1.4-.4-1.1-.6-1.1-.9-1-.3,2.1.3,5.2-.2,1.6-.4.9-.1,1.3.2,1.2.5.7,1.2.2.7-.8.5-1.2.5-1.1,1.4-.2,5.2.6,1.6.6,1.3,1.7-.3,1.8-1.3,1.9-1.8,1.8,1.3,1.3.3,2.3-.1,2.5.1,1.7.9,1.2,3.5,2.6,1.4.8,1,.1h1.9l.9.5.7,1.2-.1.9-.4.8-.2,1.1.3,2.2.9,1.2,1.1.9.4.4Z"/><path id="NZL3405" class="cls-1" d="M170,421.4l-1.3.8-1.7.6-.4.4-.3.4-1.7,3.5.8,3.8,2,3.3,2.7-1.2,1.2,2.3-.2,3.3.8,2.8,1.7,1.9,3.1.7,1.2,2.5v3.1l5.1,1.2,1.5,1.4.8,1.7-.9.6-1.3-.4-.9.3-6.5,8.5-1.6,3.5-1.3.6-1.8.3-2.2,2.4-1.2,3.3-.8,1.4-.2,1.4,3.5,2.5,1.5.8.4,1.5-.3,1-.5.9.1,2.2.7,2.1,2.2,2.9,3.6,3.1,1.1,3.1.7,3-1.2,4.5-.1,4.6.7.8.5,1-1.4,1.3-1.8.5-.8.4-.3.7v2l.2,1.4-1.3,1.6-1.7.6-2.3,1.8-1.9,2.3-1.9,1.2-1.6,1.7-2.1,3.8-2.9.1-6.2-2.3-4.7-.5-2-.5-1.8-1.2-8.2-7.8-1.5-1.9-4.5-7.1-3.1-3.3-3.9-2.2-4.1-1.4-13.2-2.1-4.4-1.5-10.4-7.8-2.9-3.1-2.3-4L85,477.9l-.4-4.5.4-4.6,1-4.7,2.3-4.5,3.5-2.8,7.9-3.6,19.7-12.4,1.7-.5,10.3.7,3.7-1.2,3.4-2.6,9.2-9.6,1.2-2.1.6-3.6.7-2.3.2-1.3v-3.1l.3-.7,5.4,2.8,6.8.5,1.5-.5,1.1.3,1,.8,1.4,1.6,2.1,1.4Z"/><path id="NZL5468" class="cls-1" d="M244.5,212.2h-1.4l-.6-.2-.9-.5-.2-.3.1-.4.2-.4.1-.3.1-.3-.1-.3-.1-.3-.5-.4-.6-.2-.6-.4-.4-1,2.1-.7.5.8.8,2.5.9.1.6.4.5.6.4.9-.5.3-.4.1Zm9.5,71.4-3.1,1.2-.4,3.7-1.6,2.6-1.4.6-.3,1.7L249,295l-.2,1.2-2.5-.7-2.3-1.3-.9,1.4-.6,1.5,1,1.2.8,1.8-.6,1.5-.2,2.3,1.3,2.7.1,2.8,1.5,3.5,1.9,3.1,2.7,6.7,1,7.9.6,1.2,2.1,2.7-.1,2.1-.6,2.3,1.2,4.1.9,1.6,1.2.3,1.3.1,2.6,1.2.8,2.7,1.8,1.7,2.3,1.4,5.5.9,3.4,3.3,1.2,1.5-.1,2.2,1,4.1.7,4.1,1,2.7,1.3,2.2.8,1.6.9,1.2,11.7,5.3,2,1.9.8,3.8-1.8,7.8-1.5,2.7-4.6-2.2-1.4,1-.5,2-.9,2.2-1.7.8L282,401l-1.1-.8.2-1,.5-1.2,1.2-1.3.5-.8.1-1.2-.3-1.2-.8-.8-1-.4h-1.1l-.7.4-1.2,1.1-.7.5-1.2.5-1.3.2h-2.6l-.4-.4-1.6-2-1.6-.9-1.4-1.4-2,2.1-.9,1.2-.7,1.5-1.1.3-1.1.2-.7,2.2.8,2.1,4.4,1.2,6.4,2.6,1.2,1.4-1.8,4.3-.9,3.9,3.1,3.6,1.7,3.7-1.4,1.5-1.7.6-5.1-2-1.6-.1-.7,2.3-.5,3.2.9,1.4,1.9,4,2.2,3.7,2,1.9,2.4.5,1.8-1,1.3,1.3,1.5,9-3.6,6.1-3.8,4.8-2.1-.7-4.5,1.6-5.8-.2-3.4.4-.4.3-.2.6-2.1,2.5-3.1,1.1-.9,1.2-.5,1.3-.8,1.3-.6,1.5-.4,1.6-.9,1.2-3,1.5-3.2-.4-7,.1-6.7-2-.3-3.9,1.8-3.6L229,459l1-4.6-.7-2-1-1.6.5-2.3,1.3-1.9,1.3-2.8v-2.1l-2.5-.2-2.5.4-2.7-1.6.6-3.6.7-1.2-.2-1.6-1.5-1.8-.4-2.4,1.4-2.8v-2.8l-2.2-1.9-1.4-2.7,2.7-4.3,1.7-4.1,1-3.3,2.2-2.5,1.2-2.8-1-1.1-2.2,1.4-2.3.8-3.2-1.5-2.6-1.8h-4.8l-4.6,1.1H207l-1.3-1.2-1.6,1.1-.4,1.1-.1,1.1-.8.3-1,.6-1.3,1.1-3.1,1.7-1.9.3-3-.6-3.2-.2-.8.6-.7.5-.8-.4-.9.2-1.6,1.3-1.8.9-4.8.9-.6,1.3.3,1.8-1.9,3.2-.2.9.1.8-2.9,1-2.7,1.7-2.1-1.4-1.4-1.6-1-.8-1.1-.3-1.5.5-6.8-.5-5.4-2.8.1-.3,1.2-.4-.5-1.7.2-1.5.5-1.5.3-1.7.2-17,.6-3.7,2.7-6.2,1-3.4.6-3.8.4-5.8.7-3.5.1-2-.3-1.8-.7-1.8-.4-1.7.4-1.4,1.2.6,1.4.2,1.5-.3,1.2-.5.1,1.1.4.9.5.8.5.5h.5v-1.4l1.2.9.9,1.3,1.1.7,1.6-.8-.6-.4-1.6-1.7,2.1-.7,2.4.3,2.1-.2,1.4-2.1h-1.4l-.6.2-.6.6-.6-.8.2-1.9-1.5-1.4-2.2-.7-1.5.4-.6,1.1-.3,1-.5.7-1.2.2-.8-.6-.1-1.4.3-1.6.3-1,.7-1.1.7-.3.7-.1,1-.5,2.5-2.7,1.2-.9.1-1.9-.9-1.7-1.8-.2-1.2,1.7-.7,2.3-1,1.2-2.1-1.5-.3-1.8.6-9.3,2.1-4.6,3.6-1.3,4.4-.1,4.2-.6-.3-.9-.5-.6-.6-.4-.8-.1,1.1-.8.8-1.1.3-1.4-.6-1.5-3.2,2-.3.5-.3,1.1-.4.4-.3-.1-.5-.3-.5-.2-2.4,1.1-1.3-1.5L163.7,303l-4.5-10.8-.8-4.4v-1.1l.7-1.2.9-.5,2.2-.6.9-.5.8-1.9.7-2.2,1-1.8,1.9-.8.2-.4-.4-.7-.8-.4-1.1.6-.7.6-1.5,1-.7.6-2.2,4-1.1.5-1.7-1.5-1.1-1.7-1.5-3.5,4.5-.7,4.6-3.1,6.7-2.1,8.3-2.1,8.7-2.1,7.1-1,.4-6.8,1.7-5.2,1.6-3.7,2.5,1.6,4.2-2.3.4,1.2.2,1.4v2.2l-1,6.7.3,2.3.9,2.1,1.2,1.8,1.2,1.4,2.8,1.6,3.4.1,3.5-.9,3-1.4.6-.6.3-.7.4-.5,1.1-.2.6.4.2,1.1v2.1l.4,1.9,1,1.2,1.4.2,1.4-.9-1.2-.3-.8-1.1-.5-1.4-.3-3.1-.7-2.5-.2-1.3-1.3-2.9-.3-1.4.1-5.1L223,251l-.4-.8-1.8-5.9-.5-1.1-.8-1.1-.9-1-2-1.4-.8-.9-.4-1-.3-1-.4-1-1-.9,1.7-.6,1.8.3h1.7L220,233h-2.5l-1.2-.2-1.1-.6,1-.3,1-.2.8-.5.5-.9h-.7l-.5-.3-.5-.2-.4-.2,3.8-1.1,1.3-1.2-.4-2.3-1.2.8-.4.5-.5-1-.4-.9v-1l.4-1-1.7-2.9.5-2.6,1-2.3-.3-2.2-.7-.3-.9-.1-.7-.4-.4-.8-.2-.2-1.4-2-1.4-.8-2.8-1.1-1.3-1.2-.7-1.2-.4-1.6-.2-3.7.7-1.4h1.5l1.9.4,2.6-.6.5.5.3.8.5.8.3.8.1.3.3.3.6.3,1.6,1.6.8.1,2-2.3,1.4,1.8.9,2.4-.1,2.5-1.7,1.9,1.6,1.3H225l1.3.5.6,2.5.2,2.4-.2,1.3-.8-.4-1-.9-.7.2-.3.9.5,1.1.8.4,2.3-.4.8.3.5,1.1-.3,1-.5.9-.2,1,.5,2.8,1.1.3,3.1-2.5-1.1-.5-.5-.1.6-.9.9-.3,1.1.2.9.6.9.5,1.1-.6,1.9-1.5,1.4-.5,1.1-.1,1,.4,1,1.2.9.1,1-.6.8-.1.2,1.6-.4,1.3-.8.3-2.2-.3-.4.5-1.5,2.8-1,.7-1.9.8-1,.8-1.2,1.7-1.2,2,1,.7-.1.7-.3.7.2.8.9.9.9.6.6-.1-.1-1,1.3-1-.6-3.1,1-1.3,1.6.9,3.2-.7,1.8,1.5.3,1.1-.1,2.4.3,1.1,1.2,1.6.3.7.4,1.3.4,4.6-.2,3.1v.5l.1,1-.4,1-.7,1.1-.3,1,.4.6.8-.5.9-1,.5-.8,1.4,1.8-.3,2.4-1.1,2.6-1.3,2.1-.1.9.8.3,1,.2.7.3.2,1.2-.1,2.8.4,1.3-.7-.5-.6-.8-.4-1-.4-1h-.6l.4,2.4.5,2.1.2,1.7-1.1,1.1,2.6,1.2.9.9.8,1.8.7,3.8.3,3.9.2.7Z"/><path id="Wellington" class="cls-1" d="M172.1,633.2l-1.2.4-.5-.2-.3-.5.2-.6.3-.5,2.4-2.5.4-.6.7-1.8.4-.3.6-.1.4-.1.7.4.2.5-1.3,2.5-3,3.4Zm107.1-9-2.7,6.8-1.2,4.8-1.2,2-3.8,1.6-1.6,1.8-1.3,2.4-.9,2.1L264,655l-1.6,3.9-7.8,11-11.8,9.7-2.8,3-3.9,2.8-4.5,2.4-16.9,13.4-5.3,2.1-1.3.9-2.5,2.9-1.3.6-5.9.5-1.2-.7-.7-3.2-1.2-1,.4-1.5-.4-1.2-.6-1-.5-1.3-.1-1.4,1.2-7.7-.3-1.1-.9-.7-9.2-3.6-2.1-.2-1.9.5-1.8,1.2-3.8,4.2-.7.5-.8.2-1.3-.3-1.7-1.3-1-1-.2-.9,1-1.9-.1-1.7-.5-1.9-.1-2.5.6-2.2,1.7-4,.3-2.6-.9-2.3-2-.6-2.3.4-1.6.7-1.2,1-.9,1-.6,1.3-.5,1.6,3.6.9,1.1,1-.5,2.4-.5.8-.7.7-.8.1-.9-.6-.8-.3-.9.7-.9.9-1,.5-3.6-.7-3.7-2-2.9-2.9-.7-3.6.9-2,1.4-.8,3.5-.7,1.3-1.1,3-3.7,1.9-1.8,1.9-4.3,1.2-1,1.6-.8,1-1.1.8-.1,1,2.7,1-1,.4-.9v-1l-.3-1.4-.4-.2-1-1.3-.5-1.3.6-.7.9-.4,1.3-1.9.9-.4.9-.3,1-.7.9-.9.6-.9.6-1.3.2-1,.3-2.6,1.6-4.6.7-1.5,4.6-5,2-3.5,2.4.1,8-1.7,10,.2,5.8-1.6.3.2,4,1.3,2.1.8,12.2-1.4,11.9-1.8,15-2.1,10.4.4,7,1.7,2.4,3.3,2.6,1.4Z"/></g></g></svg>